<svg width="24" height="24" viewBox="0 0 24 24" fill="none" xmlns="http://www.w3.org/2000/svg">
<path d="M21 10.5H21.375C21.996 10.5 22.5 11.004 22.5 11.625V13.875C22.5 14.496 21.996 15 21.375 15H21M4.5 10.5H18V15H4.5V10.5ZM3.75 18H18.75C19.3467 18 19.919 17.7629 20.341 17.341C20.7629 16.919 21 16.3467 21 15.75V9.75C21 9.15326 20.7629 8.58097 20.341 8.15901C19.919 7.73705 19.3467 7.5 18.75 7.5H3.75C3.15326 7.5 2.58097 7.73705 2.15901 8.15901C1.73705 8.58097 1.5 9.15326 1.5 9.75V15.75C1.5 16.3467 1.73705 16.919 2.15901 17.341C2.58097 17.7629 3.15326 18 3.75 18Z" stroke="white" stroke-width="1.5" stroke-linecap="round" stroke-linejoin="round"/>
</svg>
