<svg width="24" height="24" viewBox="0 0 24 24" fill="none" xmlns="http://www.w3.org/2000/svg">
<path d="M9.74988 3.10439V8.81839C9.74988 9.11386 9.69169 9.40644 9.57862 9.67943C9.46554 9.95241 9.29981 10.2005 9.09088 10.4094L4.99988 14.5004M9.74988 3.10439C9.49888 3.12739 9.24888 3.15439 8.99988 3.18639M9.74988 3.10439C11.2467 2.9652 12.7531 2.9652 14.2499 3.10439M4.99988 14.5004L5.76988 14.3074C7.86288 13.7902 10.0717 14.0359 11.9999 15.0004C13.9281 15.9649 16.1369 16.2106 18.2299 15.6934L19.7999 15.3004M4.99988 14.5004L2.79788 16.7034C1.56488 17.9344 2.14688 20.0204 3.86488 20.3134C6.50888 20.7654 9.22688 21.0004 11.9999 21.0004C14.7261 21.0013 17.4475 20.7715 20.1349 20.3134C21.8519 20.0204 22.4339 17.9344 21.2019 16.7024L19.7999 15.3004M14.2499 3.10439V8.81839C14.2499 9.41539 14.4869 9.98839 14.9089 10.4094L19.7999 15.3004M14.2499 3.10439C14.5009 3.12739 14.7509 3.15439 14.9999 3.18639" stroke="white" stroke-width="1.5" stroke-linecap="round" stroke-linejoin="round"/>
</svg>
