<svg width="48" height="48" viewBox="0 0 48 48" fill="none" xmlns="http://www.w3.org/2000/svg">
<g clip-path="url(#clip0_1_2)">
<path d="M26 19.4V14C26 13.4696 25.7893 12.9609 25.4142 12.5858C25.0391 12.2107 24.5304 12 24 12C23.4696 12 22.9609 12.2107 22.5858 12.5858C22.2107 12.9609 22 13.4696 22 14V19.4C21.1132 19.8006 20.3595 20.4466 19.828 21.2617C19.2964 22.0768 19.0091 23.0269 19 24C19 25.3261 19.5268 26.5979 20.4645 27.5355C21.4021 28.4732 22.6739 29 24 29C25.3261 29 26.5979 28.4732 27.5355 27.5355C28.4732 26.5979 29 25.3261 29 24C28.9909 23.0269 28.7036 22.0768 28.172 21.2617C27.6405 20.4466 26.8868 19.8006 26 19.4Z" fill="white"/>
<path d="M24 2C18.1733 2.02631 12.5928 4.3526 8.47272 8.47272C4.3526 12.5928 2.02631 18.1733 2 24C1.97984 26.856 2.52626 29.6876 3.60765 32.331C4.68904 34.9744 6.28392 37.377 8.3 39.4C8.47798 39.594 8.69434 39.7489 8.93534 39.8548C9.17634 39.9608 9.43674 40.0155 9.7 40.0155C9.96326 40.0155 10.2237 39.9608 10.4647 39.8548C10.7057 39.7489 10.922 39.594 11.1 39.4L14.1 36.4C14.3889 36.0149 14.5291 35.5384 14.495 35.0582C14.4608 34.578 14.2546 34.1262 13.9142 33.7858C13.5738 33.4454 13.122 33.2392 12.6418 33.205C12.1616 33.1709 11.6851 33.3111 11.3 33.6L9.8 35.1C7.79842 32.4388 6.52335 29.3029 6.1 26H8C8.53043 26 9.03914 25.7893 9.41421 25.4142C9.78929 25.0391 10 24.5304 10 24C10 23.4696 9.78929 22.9609 9.41421 22.5858C9.03914 22.2107 8.53043 22 8 22H6.1C6.50238 18.6438 7.81662 15.4619 9.9 12.8L11.3 14.1C11.478 14.294 11.6943 14.4489 11.9353 14.5548C12.1763 14.6608 12.4367 14.7155 12.7 14.7155C12.9633 14.7155 13.2237 14.6608 13.4647 14.5548C13.7057 14.4489 13.922 14.294 14.1 14.1C14.294 13.922 14.4489 13.7057 14.5548 13.4647C14.6608 13.2237 14.7155 12.9633 14.7155 12.7C14.7155 12.4367 14.6608 12.1763 14.5548 11.9353C14.4489 11.6943 14.294 11.478 14.1 11.3L12.8 9.9C15.4619 7.81662 18.6438 6.50238 22 6.1V8C22 8.53043 22.2107 9.03914 22.5858 9.41421C22.9609 9.78929 23.4696 10 24 10C24.5304 10 25.0391 9.78929 25.4142 9.41421C25.7893 9.03914 26 8.53043 26 8V6.1C29.3562 6.50238 32.5381 7.81662 35.2 9.9L33.9 11.3C33.706 11.478 33.5511 11.6943 33.4452 11.9353C33.3392 12.1763 33.2845 12.4367 33.2845 12.7C33.2845 12.9633 33.3392 13.2237 33.4452 13.4647C33.5511 13.7057 33.706 13.922 33.9 14.1C34.078 14.294 34.2943 14.4489 34.5353 14.5548C34.7763 14.6608 35.0367 14.7155 35.3 14.7155C35.5633 14.7155 35.8237 14.6608 36.0647 14.5548C36.3057 14.4489 36.522 14.294 36.7 14.1L38.1 12.8C40.1834 15.4619 41.4976 18.6438 41.9 22H40C39.4696 22 38.9609 22.2107 38.5858 22.5858C38.2107 22.9609 38 23.4696 38 24C38 24.5304 38.2107 25.0391 38.5858 25.4142C38.9609 25.7893 39.4696 26 40 26H41.9C41.4766 29.3029 40.2016 32.4388 38.2 35.1L36.7 33.6C36.5281 33.3708 36.3089 33.1812 36.0573 33.044C35.8057 32.9068 35.5276 32.8253 35.2418 32.805C34.956 32.7847 34.6691 32.8261 34.4007 32.9263C34.1322 33.0265 33.8884 33.1832 33.6858 33.3858C33.4832 33.5884 33.3265 33.8322 33.2263 34.1006C33.1261 34.3691 33.0847 34.656 33.105 34.9418C33.1253 35.2276 33.2068 35.5057 33.344 35.7573C33.4811 36.0089 33.6708 36.2281 33.9 36.4L37 39.5C37.381 39.8239 37.8696 39.9934 38.3694 39.9749C38.8692 39.9563 39.344 39.7512 39.7 39.4C41.7161 37.377 43.311 34.9744 44.3924 32.331C45.4737 29.6876 46.0202 26.856 46 24C45.9737 18.1733 43.6474 12.5928 39.5273 8.47272C35.4072 4.3526 29.8267 2.02631 24 2Z" fill="white"/>
</g>
<defs>
<clipPath id="clip0_1_2">
<rect width="48" height="48" fill="white"/>
</clipPath>
</defs>
</svg>
