<svg width="12" height="12" viewBox="0 0 12 12" fill="none" xmlns="http://www.w3.org/2000/svg">
<path d="M3.14999 7.19999C3.14999 7.08064 3.1974 6.96618 3.2818 6.88179C3.36619 6.7974 3.48065 6.74999 3.59999 6.74999H3.60599C3.72534 6.74999 3.8398 6.7974 3.92419 6.88179C4.00858 6.96618 4.05599 7.08064 4.05599 7.19999V7.20599C4.05599 7.32534 4.00858 7.43979 3.92419 7.52419C3.8398 7.60858 3.72534 7.65599 3.60599 7.65599H3.59999C3.48065 7.65599 3.36619 7.60858 3.2818 7.52419C3.1974 7.43979 3.14999 7.32534 3.14999 7.20599V7.19999ZM3.59999 7.94999C3.48065 7.94999 3.36619 7.9974 3.2818 8.08179C3.1974 8.16618 3.14999 8.28064 3.14999 8.39999V8.40599C3.14999 8.65439 3.35159 8.85599 3.59999 8.85599H3.60599C3.72534 8.85599 3.8398 8.80858 3.92419 8.72419C4.00858 8.63979 4.05599 8.52534 4.05599 8.40599V8.39999C4.05599 8.28064 4.00858 8.16618 3.92419 8.08179C3.8398 7.9974 3.72534 7.94999 3.60599 7.94999H3.59999ZM4.34999 7.19999C4.34999 7.08064 4.3974 6.96618 4.4818 6.88179C4.56619 6.7974 4.68065 6.74999 4.79999 6.74999H4.80599C4.92534 6.74999 5.0398 6.7974 5.12419 6.88179C5.20858 6.96618 5.25599 7.08064 5.25599 7.19999V7.20599C5.25599 7.32534 5.20858 7.43979 5.12419 7.52419C5.0398 7.60858 4.92534 7.65599 4.80599 7.65599H4.79999C4.68065 7.65599 4.56619 7.60858 4.4818 7.52419C4.3974 7.43979 4.34999 7.32534 4.34999 7.20599V7.19999ZM4.79999 7.94999C4.68065 7.94999 4.56619 7.9974 4.4818 8.08179C4.3974 8.16618 4.34999 8.28064 4.34999 8.39999V8.40599C4.34999 8.65439 4.55159 8.85599 4.79999 8.85599H4.80599C4.92534 8.85599 5.0398 8.80858 5.12419 8.72419C5.20858 8.63979 5.25599 8.52534 5.25599 8.40599V8.39999C5.25599 8.28064 5.20858 8.16618 5.12419 8.08179C5.0398 7.9974 4.92534 7.94999 4.80599 7.94999H4.79999ZM5.54999 5.99999C5.54999 5.88064 5.5974 5.76618 5.6818 5.68179C5.76619 5.5974 5.88065 5.54999 5.99999 5.54999H6.00599C6.12534 5.54999 6.2398 5.5974 6.32419 5.68179C6.40858 5.76618 6.45599 5.88064 6.45599 5.99999V6.00599C6.45599 6.12534 6.40858 6.23979 6.32419 6.32419C6.2398 6.40858 6.12534 6.45599 6.00599 6.45599H5.99999C5.88065 6.45599 5.76619 6.40858 5.6818 6.32419C5.5974 6.23979 5.54999 6.12534 5.54999 6.00599V5.99999ZM5.99999 6.74999C5.88065 6.74999 5.76619 6.7974 5.6818 6.88179C5.5974 6.96618 5.54999 7.08064 5.54999 7.19999V7.20599C5.54999 7.45439 5.75159 7.65599 5.99999 7.65599H6.00599C6.12534 7.65599 6.2398 7.60858 6.32419 7.52419C6.40858 7.43979 6.45599 7.32534 6.45599 7.20599V7.19999C6.45599 7.08064 6.40858 6.96618 6.32419 6.88179C6.2398 6.7974 6.12534 6.74999 6.00599 6.74999H5.99999ZM5.54999 8.39999C5.54999 8.28064 5.5974 8.16618 5.6818 8.08179C5.76619 7.9974 5.88065 7.94999 5.99999 7.94999H6.00599C6.12534 7.94999 6.2398 7.9974 6.32419 8.08179C6.40858 8.16618 6.45599 8.28064 6.45599 8.39999V8.40599C6.45599 8.52534 6.40858 8.63979 6.32419 8.72419C6.2398 8.80858 6.12534 8.85599 6.00599 8.85599H5.99999C5.88065 8.85599 5.76619 8.80858 5.6818 8.72419C5.5974 8.63979 5.54999 8.52534 5.54999 8.40599V8.39999ZM7.19999 5.54999C7.08065 5.54999 6.96619 5.5974 6.8818 5.68179C6.7974 5.76618 6.74999 5.88064 6.74999 5.99999V6.00599C6.74999 6.25439 6.95159 6.45599 7.19999 6.45599H7.20599C7.32534 6.45599 7.4398 6.40858 7.52419 6.32419C7.60858 6.23979 7.65599 6.12534 7.65599 6.00599V5.99999C7.65599 5.88064 7.60858 5.76618 7.52419 5.68179C7.4398 5.5974 7.32534 5.54999 7.20599 5.54999H7.19999ZM6.74999 7.19999C6.74999 7.08064 6.7974 6.96618 6.8818 6.88179C6.96619 6.7974 7.08065 6.74999 7.19999 6.74999H7.20599C7.32534 6.74999 7.4398 6.7974 7.52419 6.88179C7.60858 6.96618 7.65599 7.08064 7.65599 7.19999V7.20599C7.65599 7.32534 7.60858 7.43979 7.52419 7.52419C7.4398 7.60858 7.32534 7.65599 7.20599 7.65599H7.19999C7.08065 7.65599 6.96619 7.60858 6.8818 7.52419C6.7974 7.43979 6.74999 7.32534 6.74999 7.20599V7.19999ZM7.19999 7.94999C7.08065 7.94999 6.96619 7.9974 6.8818 8.08179C6.7974 8.16618 6.74999 8.28064 6.74999 8.39999V8.40599C6.74999 8.65439 6.95159 8.85599 7.19999 8.85599H7.20599C7.32534 8.85599 7.4398 8.80858 7.52419 8.72419C7.60858 8.63979 7.65599 8.52534 7.65599 8.40599V8.39999C7.65599 8.28064 7.60858 8.16618 7.52419 8.08179C7.4398 7.9974 7.32534 7.94999 7.20599 7.94999H7.19999ZM7.94999 5.99999C7.94999 5.88064 7.9974 5.76618 8.0818 5.68179C8.16619 5.5974 8.28065 5.54999 8.39999 5.54999H8.40599C8.52534 5.54999 8.6398 5.5974 8.72419 5.68179C8.80858 5.76618 8.85599 5.88064 8.85599 5.99999V6.00599C8.85599 6.12534 8.80858 6.23979 8.72419 6.32419C8.6398 6.40858 8.52534 6.45599 8.40599 6.45599H8.39999C8.28065 6.45599 8.16619 6.40858 8.0818 6.32419C7.9974 6.23979 7.94999 6.12534 7.94999 6.00599V5.99999ZM8.39999 6.74999C8.28065 6.74999 8.16619 6.7974 8.0818 6.88179C7.9974 6.96618 7.94999 7.08064 7.94999 7.19999V7.20599C7.94999 7.45439 8.15159 7.65599 8.39999 7.65599H8.40599C8.52534 7.65599 8.6398 7.60858 8.72419 7.52419C8.80858 7.43979 8.85599 7.32534 8.85599 7.20599V7.19999C8.85599 7.08064 8.80858 6.96618 8.72419 6.88179C8.6398 6.7974 8.52534 6.74999 8.40599 6.74999H8.39999Z" fill="white"/>
<path fill-rule="evenodd" clip-rule="evenodd" d="M3.45001 1.20001C3.56936 1.20001 3.68382 1.24742 3.76821 1.33181C3.8526 1.41621 3.90001 1.53066 3.90001 1.65001V2.40001H8.10001V1.65001C8.10001 1.53066 8.14742 1.41621 8.23181 1.33181C8.31621 1.24742 8.43067 1.20001 8.55001 1.20001C8.66936 1.20001 8.78382 1.24742 8.86821 1.33181C8.9526 1.41621 9.00001 1.53066 9.00001 1.65001V2.40001H9.15001C9.58762 2.40001 10.0073 2.57385 10.3167 2.88329C10.6262 3.19272 10.8 3.61241 10.8 4.05001V9.15001C10.8 9.58762 10.6262 10.0073 10.3167 10.3167C10.0073 10.6262 9.58762 10.8 9.15001 10.8H2.85001C2.41241 10.8 1.99272 10.6262 1.68329 10.3167C1.37385 10.0073 1.20001 9.58762 1.20001 9.15001V4.05001C1.20001 3.61241 1.37385 3.19272 1.68329 2.88329C1.99272 2.57385 2.41241 2.40001 2.85001 2.40001H3.00001V1.65001C3.00001 1.53066 3.04742 1.41621 3.13181 1.33181C3.21621 1.24742 3.33066 1.20001 3.45001 1.20001ZM2.85001 4.50001C2.43601 4.50001 2.10001 4.83601 2.10001 5.25001V9.15001C2.10001 9.56401 2.43601 9.90001 2.85001 9.90001H9.15001C9.56401 9.90001 9.90001 9.56401 9.90001 9.15001V5.25001C9.90001 4.83601 9.56401 4.50001 9.15001 4.50001H2.85001Z" fill="white"/>
</svg>
