<svg width="10" height="11" viewBox="0 0 10 11" fill="none" xmlns="http://www.w3.org/2000/svg">
<path d="M2.14999 6.94901C2.14999 6.82966 2.1974 6.7152 2.2818 6.63081C2.36619 6.54642 2.48065 6.49901 2.59999 6.49901H2.60599C2.72534 6.49901 2.8398 6.54642 2.92419 6.63081C3.00858 6.7152 3.05599 6.82966 3.05599 6.94901V6.95501C3.05599 7.07436 3.00858 7.18882 2.92419 7.27321C2.8398 7.3576 2.72534 7.40501 2.60599 7.40501H2.59999C2.48065 7.40501 2.36619 7.3576 2.2818 7.27321C2.1974 7.18882 2.14999 7.07436 2.14999 6.95501V6.94901ZM2.59999 7.69901C2.48065 7.69901 2.36619 7.74642 2.2818 7.83081C2.1974 7.9152 2.14999 8.02966 2.14999 8.14901V8.15501C2.14999 8.40341 2.35159 8.60501 2.59999 8.60501H2.60599C2.72534 8.60501 2.8398 8.5576 2.92419 8.47321C3.00858 8.38882 3.05599 8.27436 3.05599 8.15501V8.14901C3.05599 8.02966 3.00858 7.9152 2.92419 7.83081C2.8398 7.74642 2.72534 7.69901 2.60599 7.69901H2.59999ZM3.34999 6.94901C3.34999 6.82966 3.3974 6.7152 3.4818 6.63081C3.56619 6.54642 3.68065 6.49901 3.79999 6.49901H3.80599C3.92534 6.49901 4.0398 6.54642 4.12419 6.63081C4.20858 6.7152 4.25599 6.82966 4.25599 6.94901V6.95501C4.25599 7.07436 4.20858 7.18882 4.12419 7.27321C4.0398 7.3576 3.92534 7.40501 3.80599 7.40501H3.79999C3.68065 7.40501 3.56619 7.3576 3.4818 7.27321C3.3974 7.18882 3.34999 7.07436 3.34999 6.95501V6.94901ZM3.79999 7.69901C3.68065 7.69901 3.56619 7.74642 3.4818 7.83081C3.3974 7.9152 3.34999 8.02966 3.34999 8.14901V8.15501C3.34999 8.40341 3.55159 8.60501 3.79999 8.60501H3.80599C3.92534 8.60501 4.0398 8.5576 4.12419 8.47321C4.20858 8.38882 4.25599 8.27436 4.25599 8.15501V8.14901C4.25599 8.02966 4.20858 7.9152 4.12419 7.83081C4.0398 7.74642 3.92534 7.69901 3.80599 7.69901H3.79999ZM4.54999 5.74901C4.54999 5.62966 4.5974 5.5152 4.6818 5.43081C4.76619 5.34642 4.88065 5.29901 4.99999 5.29901H5.00599C5.12534 5.29901 5.2398 5.34642 5.32419 5.43081C5.40858 5.5152 5.45599 5.62966 5.45599 5.74901V5.75501C5.45599 5.87436 5.40858 5.98882 5.32419 6.07321C5.2398 6.1576 5.12534 6.20501 5.00599 6.20501H4.99999C4.88065 6.20501 4.76619 6.1576 4.6818 6.07321C4.5974 5.98882 4.54999 5.87436 4.54999 5.75501V5.74901ZM4.99999 6.49901C4.88065 6.49901 4.76619 6.54642 4.6818 6.63081C4.5974 6.7152 4.54999 6.82966 4.54999 6.94901V6.95501C4.54999 7.20341 4.75159 7.40501 4.99999 7.40501H5.00599C5.12534 7.40501 5.2398 7.3576 5.32419 7.27321C5.40858 7.18882 5.45599 7.07436 5.45599 6.95501V6.94901C5.45599 6.82966 5.40858 6.7152 5.32419 6.63081C5.2398 6.54642 5.12534 6.49901 5.00599 6.49901H4.99999ZM4.54999 8.14901C4.54999 8.02966 4.5974 7.9152 4.6818 7.83081C4.76619 7.74642 4.88065 7.69901 4.99999 7.69901H5.00599C5.12534 7.69901 5.2398 7.74642 5.32419 7.83081C5.40858 7.9152 5.45599 8.02966 5.45599 8.14901V8.15501C5.45599 8.27436 5.40858 8.38882 5.32419 8.47321C5.2398 8.5576 5.12534 8.60501 5.00599 8.60501H4.99999C4.88065 8.60501 4.76619 8.5576 4.6818 8.47321C4.5974 8.38882 4.54999 8.27436 4.54999 8.15501V8.14901ZM6.19999 5.29901C6.08065 5.29901 5.96619 5.34642 5.8818 5.43081C5.7974 5.5152 5.74999 5.62966 5.74999 5.74901V5.75501C5.74999 6.00341 5.95159 6.20501 6.19999 6.20501H6.20599C6.32534 6.20501 6.4398 6.1576 6.52419 6.07321C6.60858 5.98882 6.65599 5.87436 6.65599 5.75501V5.74901C6.65599 5.62966 6.60858 5.5152 6.52419 5.43081C6.4398 5.34642 6.32534 5.29901 6.20599 5.29901H6.19999ZM5.74999 6.94901C5.74999 6.82966 5.7974 6.7152 5.8818 6.63081C5.96619 6.54642 6.08065 6.49901 6.19999 6.49901H6.20599C6.32534 6.49901 6.4398 6.54642 6.52419 6.63081C6.60858 6.7152 6.65599 6.82966 6.65599 6.94901V6.95501C6.65599 7.07436 6.60858 7.18882 6.52419 7.27321C6.4398 7.3576 6.32534 7.40501 6.20599 7.40501H6.19999C6.08065 7.40501 5.96619 7.3576 5.8818 7.27321C5.7974 7.18882 5.74999 7.07436 5.74999 6.95501V6.94901ZM6.19999 7.69901C6.08065 7.69901 5.96619 7.74642 5.8818 7.83081C5.7974 7.9152 5.74999 8.02966 5.74999 8.14901V8.15501C5.74999 8.40341 5.95159 8.60501 6.19999 8.60501H6.20599C6.32534 8.60501 6.4398 8.5576 6.52419 8.47321C6.60858 8.38882 6.65599 8.27436 6.65599 8.15501V8.14901C6.65599 8.02966 6.60858 7.9152 6.52419 7.83081C6.4398 7.74642 6.32534 7.69901 6.20599 7.69901H6.19999ZM6.94999 5.74901C6.94999 5.62966 6.99741 5.5152 7.0818 5.43081C7.16619 5.34642 7.28065 5.29901 7.39999 5.29901H7.40599C7.52534 5.29901 7.6398 5.34642 7.72419 5.43081C7.80858 5.5152 7.85599 5.62966 7.85599 5.74901V5.75501C7.85599 5.87436 7.80858 5.98882 7.72419 6.07321C7.6398 6.1576 7.52534 6.20501 7.40599 6.20501H7.39999C7.28065 6.20501 7.16619 6.1576 7.0818 6.07321C6.99741 5.98882 6.94999 5.87436 6.94999 5.75501V5.74901ZM7.39999 6.49901C7.28065 6.49901 7.16619 6.54642 7.0818 6.63081C6.99741 6.7152 6.94999 6.82966 6.94999 6.94901V6.95501C6.94999 7.20341 7.15159 7.40501 7.39999 7.40501H7.40599C7.52534 7.40501 7.6398 7.3576 7.72419 7.27321C7.80858 7.18882 7.85599 7.07436 7.85599 6.95501V6.94901C7.85599 6.82966 7.80858 6.7152 7.72419 6.63081C7.6398 6.54642 7.52534 6.49901 7.40599 6.49901H7.39999Z" fill="#002053"/>
<path fill-rule="evenodd" clip-rule="evenodd" d="M2.45001 0.949036C2.56936 0.949036 2.68382 0.996446 2.76821 1.08084C2.8526 1.16523 2.90001 1.27969 2.90001 1.39904V2.14904H7.10001V1.39904C7.10001 1.27969 7.14742 1.16523 7.23181 1.08084C7.31621 0.996446 7.43067 0.949036 7.55001 0.949036C7.66936 0.949036 7.78382 0.996446 7.86821 1.08084C7.9526 1.16523 8.00001 1.27969 8.00001 1.39904V2.14904H8.15001C8.58762 2.14904 9.0073 2.32287 9.31674 2.63231C9.62617 2.94174 9.80001 3.36143 9.80001 3.79904V8.89904C9.80001 9.33664 9.62617 9.75633 9.31674 10.0658C9.0073 10.3752 8.58762 10.549 8.15001 10.549H1.85001C1.41241 10.549 0.992721 10.3752 0.683286 10.0658C0.373851 9.75633 0.200012 9.33664 0.200012 8.89904V3.79904C0.200012 3.36143 0.373851 2.94174 0.683286 2.63231C0.992721 2.32287 1.41241 2.14904 1.85001 2.14904H2.00001V1.39904C2.00001 1.27969 2.04742 1.16523 2.13181 1.08084C2.21621 0.996446 2.33066 0.949036 2.45001 0.949036ZM1.85001 4.24904C1.43601 4.24904 1.10001 4.58504 1.10001 4.99904V8.89904C1.10001 9.31304 1.43601 9.64904 1.85001 9.64904H8.15001C8.56401 9.64904 8.90001 9.31304 8.90001 8.89904V4.99904C8.90001 4.58504 8.56401 4.24904 8.15001 4.24904H1.85001Z" fill="#002053"/>
</svg>
