<svg width="12" height="12" viewBox="0 0 12 12" fill="none" xmlns="http://www.w3.org/2000/svg">
<path d="M1 2.36364C1 2.00198 1.14367 1.65513 1.3994 1.3994C1.65513 1.14367 2.00198 1 2.36364 1H3.72727C4.08893 1 4.43578 1.14367 4.69151 1.3994C4.94724 1.65513 5.09091 2.00198 5.09091 2.36364V3.72727C5.09091 4.08893 4.94724 4.43578 4.69151 4.69151C4.43578 4.94724 4.08893 5.09091 3.72727 5.09091H2.36364C2.00198 5.09091 1.65513 4.94724 1.3994 4.69151C1.14367 4.43578 1 4.08893 1 3.72727V2.36364ZM1 8.27273C1 7.91107 1.14367 7.56422 1.3994 7.30849C1.65513 7.05276 2.00198 6.90909 2.36364 6.90909H3.72727C4.08893 6.90909 4.43578 7.05276 4.69151 7.30849C4.94724 7.56422 5.09091 7.91107 5.09091 8.27273V9.63636C5.09091 9.99802 4.94724 10.3449 4.69151 10.6006C4.43578 10.8563 4.08893 11 3.72727 11H2.36364C2.00198 11 1.65513 10.8563 1.3994 10.6006C1.14367 10.3449 1 9.99802 1 9.63636V8.27273ZM6.90909 2.36364C6.90909 2.00198 7.05276 1.65513 7.30849 1.3994C7.56422 1.14367 7.91107 1 8.27273 1H9.63636C9.99802 1 10.3449 1.14367 10.6006 1.3994C10.8563 1.65513 11 2.00198 11 2.36364V3.72727C11 4.08893 10.8563 4.43578 10.6006 4.69151C10.3449 4.94724 9.99802 5.09091 9.63636 5.09091H8.27273C7.91107 5.09091 7.56422 4.94724 7.30849 4.69151C7.05276 4.43578 6.90909 4.08893 6.90909 3.72727V2.36364ZM6.90909 8.27273C6.90909 7.91107 7.05276 7.56422 7.30849 7.30849C7.56422 7.05276 7.91107 6.90909 8.27273 6.90909H9.63636C9.99802 6.90909 10.3449 7.05276 10.6006 7.30849C10.8563 7.56422 11 7.91107 11 8.27273V9.63636C11 9.99802 10.8563 10.3449 10.6006 10.6006C10.3449 10.8563 9.99802 11 9.63636 11H8.27273C7.91107 11 7.56422 10.8563 7.30849 10.6006C7.05276 10.3449 6.90909 9.99802 6.90909 9.63636V8.27273Z" stroke="white" stroke-linecap="round" stroke-linejoin="round"/>
</svg>
