<svg width="12" height="12" viewBox="0 0 12 12" fill="none" xmlns="http://www.w3.org/2000/svg">
<path d="M1 2.11266C1 1.751 1.14367 1.40415 1.3994 1.14842C1.65513 0.892692 2.00198 0.749023 2.36364 0.749023H3.72727C4.08893 0.749023 4.43578 0.892692 4.69151 1.14842C4.94724 1.40415 5.09091 1.751 5.09091 2.11266V3.4763C5.09091 3.83796 4.94724 4.1848 4.69151 4.44053C4.43578 4.69626 4.08893 4.83993 3.72727 4.83993H2.36364C2.00198 4.83993 1.65513 4.69626 1.3994 4.44053C1.14367 4.1848 1 3.83796 1 3.4763V2.11266ZM1 8.02175C1 7.66009 1.14367 7.31325 1.3994 7.05751C1.65513 6.80178 2.00198 6.65811 2.36364 6.65811H3.72727C4.08893 6.65811 4.43578 6.80178 4.69151 7.05751C4.94724 7.31325 5.09091 7.66009 5.09091 8.02175V9.38539C5.09091 9.74705 4.94724 10.0939 4.69151 10.3496C4.43578 10.6054 4.08893 10.749 3.72727 10.749H2.36364C2.00198 10.749 1.65513 10.6054 1.3994 10.3496C1.14367 10.0939 1 9.74705 1 9.38539V8.02175ZM6.90909 2.11266C6.90909 1.751 7.05276 1.40415 7.30849 1.14842C7.56422 0.892692 7.91107 0.749023 8.27273 0.749023H9.63636C9.99802 0.749023 10.3449 0.892692 10.6006 1.14842C10.8563 1.40415 11 1.751 11 2.11266V3.4763C11 3.83796 10.8563 4.1848 10.6006 4.44053C10.3449 4.69626 9.99802 4.83993 9.63636 4.83993H8.27273C7.91107 4.83993 7.56422 4.69626 7.30849 4.44053C7.05276 4.1848 6.90909 3.83796 6.90909 3.4763V2.11266ZM6.90909 8.02175C6.90909 7.66009 7.05276 7.31325 7.30849 7.05751C7.56422 6.80178 7.91107 6.65811 8.27273 6.65811H9.63636C9.99802 6.65811 10.3449 6.80178 10.6006 7.05751C10.8563 7.31325 11 7.66009 11 8.02175V9.38539C11 9.74705 10.8563 10.0939 10.6006 10.3496C10.3449 10.6054 9.99802 10.749 9.63636 10.749H8.27273C7.91107 10.749 7.56422 10.6054 7.30849 10.3496C7.05276 10.0939 6.90909 9.74705 6.90909 9.38539V8.02175Z" stroke="#002053" stroke-linecap="round" stroke-linejoin="round"/>
</svg>
