<svg width="12" height="12" viewBox="0 0 12 12" fill="none" xmlns="http://www.w3.org/2000/svg">
<path d="M8.39297 2.19318L9.29269 1.29293C9.48025 1.10537 9.73463 1 9.99988 1C10.2651 1 10.5195 1.10537 10.7071 1.29293C10.8946 1.48049 11 1.73487 11 2.00012C11 2.26537 10.8946 2.51975 10.7071 2.70731L5.04368 8.3707C4.76172 8.65249 4.41402 8.85961 4.03196 8.97336L2.59998 9.40002L3.02664 7.96804C3.14039 7.58598 3.34751 7.23828 3.6293 6.95632L8.39297 2.19318ZM8.39297 2.19318L9.79988 3.6001M8.99989 7.26672V9.80002C8.99989 10.1183 8.87347 10.4235 8.64843 10.6485C8.42339 10.8736 8.11817 11 7.79991 11H2.19998C1.88173 11 1.57651 10.8736 1.35147 10.6485C1.12643 10.4235 1 10.1183 1 9.80002V4.20009C1 3.88183 1.12643 3.57661 1.35147 3.35157C1.57651 3.12653 1.88173 3.00011 2.19998 3.00011H4.73328" stroke="white" stroke-linecap="round" stroke-linejoin="round"/>
</svg>
