<svg width="12" height="12" viewBox="0 0 12 12" fill="none" xmlns="http://www.w3.org/2000/svg">
<path d="M8.39297 1.94221L9.29269 1.04195C9.48025 0.854393 9.73463 0.749023 9.99988 0.749023C10.2651 0.749023 10.5195 0.854393 10.7071 1.04195C10.8946 1.22951 11 1.48389 11 1.74914C11 2.01439 10.8946 2.26877 10.7071 2.45633L5.04368 8.11972C4.76172 8.40152 4.41402 8.60864 4.03196 8.72238L2.59998 9.14904L3.02664 7.71706C3.14039 7.33501 3.34751 6.9873 3.6293 6.70534L8.39297 1.94221ZM8.39297 1.94221L9.79988 3.34912M8.99989 7.01574V9.54904C8.99989 9.86729 8.87347 10.1725 8.64843 10.3976C8.42339 10.6226 8.11817 10.749 7.79991 10.749H2.19998C1.88173 10.749 1.57651 10.6226 1.35147 10.3976C1.12643 10.1725 1 9.86729 1 9.54904V3.94911C1 3.63086 1.12643 3.32564 1.35147 3.1006C1.57651 2.87556 1.88173 2.74913 2.19998 2.74913H4.73328" stroke="#002053" stroke-linecap="round" stroke-linejoin="round"/>
</svg>
