<svg width="12" height="15" viewBox="0 0 12 15" fill="none" xmlns="http://www.w3.org/2000/svg">
<path d="M4.34091 7.49902H6.72727M4.34091 9.57595H6.72727M4.34091 11.6529H6.72727M8.63636 12.1721H10.0682C10.4479 12.1721 10.8121 12.008 11.0806 11.7159C11.3491 11.4237 11.5 11.0275 11.5 10.6144V3.41995C11.5 2.63418 10.9623 1.96748 10.2425 1.90241C10.0045 1.88093 9.76631 1.86247 9.52791 1.84702M9.52791 1.84702C9.57014 1.99593 9.59095 2.15088 9.59091 2.30672C9.59091 2.44442 9.54063 2.57649 9.45112 2.67387C9.36161 2.77124 9.24022 2.82595 9.11364 2.82595H6.25C5.98655 2.82595 5.77273 2.59333 5.77273 2.30672C5.77273 2.14679 5.795 1.99241 5.83636 1.84702M9.52791 1.84702C9.34782 1.21148 8.80309 0.749023 8.15909 0.749023H7.20455C6.89861 0.749102 6.60073 0.855739 6.35453 1.05332C6.10833 1.2509 5.92675 1.52905 5.83636 1.84702M5.83636 1.84702C5.59709 1.86295 5.35909 1.88164 5.12109 1.90241C4.40136 1.96748 3.86364 2.63418 3.86364 3.41995V4.90287M3.86364 4.90287H1.71591C1.32073 4.90287 1 5.25179 1 5.68172V13.4702C1 13.9001 1.32073 14.249 1.71591 14.249H7.92045C8.31564 14.249 8.63636 13.9001 8.63636 13.4702V5.68172C8.63636 5.25179 8.31564 4.90287 7.92045 4.90287H3.86364ZM2.90909 7.49902H2.91418V7.50456H2.90909V7.49902ZM2.90909 9.57595H2.91418V9.58149H2.90909V9.57595ZM2.90909 11.6529H2.91418V11.6584H2.90909V11.6529Z" stroke="#002053" stroke-linecap="round" stroke-linejoin="round"/>
</svg>
