<svg width="12" height="15" viewBox="0 0 12 15" fill="none" xmlns="http://www.w3.org/2000/svg">
<path d="M4.34091 7.75H6.72727M4.34091 9.82692H6.72727M4.34091 11.9038H6.72727M8.63636 12.4231H10.0682C10.4479 12.4231 10.8121 12.259 11.0806 11.9668C11.3491 11.6747 11.5 11.2785 11.5 10.8654V3.67092C11.5 2.88515 10.9623 2.21846 10.2425 2.15338C10.0045 2.13191 9.76631 2.11345 9.52791 2.098M9.52791 2.098C9.57014 2.24691 9.59095 2.40186 9.59091 2.55769C9.59091 2.6954 9.54063 2.82747 9.45112 2.92484C9.36161 3.02222 9.24022 3.07692 9.11364 3.07692H6.25C5.98655 3.07692 5.77273 2.84431 5.77273 2.55769C5.77273 2.39777 5.795 2.24338 5.83636 2.098M9.52791 2.098C9.34782 1.46246 8.80309 1 8.15909 1H7.20455C6.89861 1.00008 6.60073 1.10672 6.35453 1.3043C6.10833 1.50188 5.92675 1.78002 5.83636 2.098M5.83636 2.098C5.59709 2.11392 5.35909 2.13262 5.12109 2.15338C4.40136 2.21846 3.86364 2.88515 3.86364 3.67092V5.15385M3.86364 5.15385H1.71591C1.32073 5.15385 1 5.50277 1 5.93269V13.7212C1 14.1511 1.32073 14.5 1.71591 14.5H7.92045C8.31564 14.5 8.63636 14.1511 8.63636 13.7212V5.93269C8.63636 5.50277 8.31564 5.15385 7.92045 5.15385H3.86364ZM2.90909 7.75H2.91418V7.75554H2.90909V7.75ZM2.90909 9.82692H2.91418V9.83246H2.90909V9.82692ZM2.90909 11.9038H2.91418V11.9094H2.90909V11.9038Z" stroke="white" stroke-linecap="round" stroke-linejoin="round"/>
</svg>
