<svg width="42" height="24" viewBox="0 0 42 24" fill="none" xmlns="http://www.w3.org/2000/svg">
<g clip-path="url(#clip0_54_6)">
<path d="M35.6654 18.8319L33.5089 17.385C34.0859 16.5207 34.4341 15.524 34.5208 14.4884C34.6075 13.4529 34.4299 12.4122 34.0047 11.464L36.3718 10.3966C36.9795 11.7471 37.2334 13.2299 37.1099 14.7056C36.9863 16.1813 36.4892 17.6013 35.6654 18.8319Z" fill="#639FFF"/>
<path d="M7.45777 13.9783H4.86133V23.749H7.45777V13.9783Z" fill="#0095F2"/>
<path d="M17.5724 23.7475L16.127 21.0364L18.409 19.794L20.5128 23.7475H17.5724Z" fill="#0095F2"/>
<path d="M13.5802 22.6971C11.8558 22.6971 10.1701 22.1858 8.73624 21.2277C7.30243 20.2697 6.18492 18.908 5.52501 17.3149C4.86511 15.7217 4.69244 13.9686 5.02886 12.2774C5.36528 10.5861 6.19567 9.03252 7.41502 7.81317C8.63437 6.59382 10.1879 5.76343 11.8792 5.42702C13.5705 5.0906 15.3236 5.26326 16.9167 5.92317C18.5099 6.58308 19.8716 7.70059 20.8296 9.13439C21.7877 10.5682 22.299 12.2539 22.299 13.9783C22.3048 15.1249 22.0832 16.2612 21.647 17.3216C21.2109 18.3821 20.5689 19.3455 19.7581 20.1563C18.9474 20.967 17.9839 21.609 16.9235 22.0452C15.8631 22.4813 14.7268 22.7029 13.5802 22.6971ZM13.5802 7.85592C12.3693 7.85592 11.1856 8.215 10.1788 8.88773C9.17192 9.56047 8.3872 10.5167 7.92381 11.6354C7.46042 12.7541 7.33918 13.9851 7.57541 15.1727C7.81164 16.3604 8.39474 17.4513 9.25098 18.3075C10.1072 19.1637 11.1981 19.7468 12.3858 19.9831C13.5734 20.2193 14.8044 20.098 15.9231 19.6347C17.0418 19.1713 17.998 18.3865 18.6708 17.3797C19.3435 16.3729 19.7026 15.1892 19.7026 13.9783C19.7005 12.3552 19.0548 10.7991 17.9071 9.65139C16.7594 8.50367 15.2033 7.85797 13.5802 7.85592Z" fill="#0095F2"/>
<path d="M28.4215 22.6971C26.9422 22.6971 25.4872 22.3206 24.1935 21.6032C22.8998 20.8858 21.81 19.8511 21.0264 18.5963C20.2429 17.3416 19.7915 15.9081 19.7148 14.4308C19.638 12.9535 19.9384 11.4809 20.5876 10.1517C21.2369 8.8225 22.2136 7.68034 23.426 6.83271C24.6384 5.98509 26.0465 5.45987 27.5178 5.30648C28.9891 5.1531 30.4753 5.37659 31.8364 5.95593C33.1975 6.53527 34.3889 7.45141 35.2983 8.61812L33.2503 10.2246C32.4941 9.254 31.4628 8.53385 30.2911 8.1581C29.1194 7.78236 27.8617 7.76849 26.682 8.11829C25.5023 8.46808 24.4554 9.16532 23.6779 10.119C22.9004 11.0727 22.4284 12.2386 22.3235 13.4646C22.2186 14.6906 22.4856 15.9197 23.0897 16.9917C23.6938 18.0636 24.607 18.9286 25.71 19.4738C26.8131 20.019 28.0549 20.2191 29.2734 20.0479C30.4919 19.8768 31.6306 19.3423 32.5408 18.5143L34.2898 20.4338C32.6843 21.8935 30.5914 22.7007 28.4215 22.6971Z" fill="#0095F2"/>
<path d="M16.1782 13.9783C16.1782 14.4921 16.0258 14.9944 15.7403 15.4217C15.4548 15.8489 15.0491 16.1819 14.5744 16.3785C14.0997 16.5752 13.5773 16.6266 13.0733 16.5264C12.5694 16.4261 12.1064 16.1787 11.7431 15.8154C11.3798 15.452 11.1323 14.9891 11.0321 14.4852C10.9319 13.9812 10.9833 13.4588 11.1799 12.9841C11.3766 12.5094 11.7096 12.1036 12.1368 11.8182C12.564 11.5327 13.0663 11.3803 13.5802 11.3803C13.9214 11.3801 14.2593 11.4472 14.5746 11.5777C14.8899 11.7082 15.1764 11.8995 15.4177 12.1408C15.659 12.3821 15.8503 12.6686 15.9808 12.9839C16.1113 13.2992 16.1784 13.6371 16.1782 13.9783Z" fill="#639FFF"/>
<path d="M31.0178 13.9783C31.0178 14.4922 30.8654 14.9946 30.5799 15.4218C30.2943 15.8491 29.8885 16.1821 29.4137 16.3787C28.9389 16.5753 28.4164 16.6266 27.9124 16.5263C27.4084 16.4259 26.9455 16.1783 26.5822 15.8148C26.219 15.4513 25.9716 14.9883 25.8716 14.4842C25.7715 13.9801 25.8232 13.4577 26.02 12.983C26.2169 12.5083 26.5501 12.1027 26.9776 11.8174C27.405 11.5321 27.9075 11.38 28.4214 11.3803C28.7625 11.3803 29.1002 11.4475 29.4153 11.5781C29.7305 11.7087 30.0168 11.9001 30.2579 12.1414C30.499 12.3826 30.6902 12.669 30.8206 12.9842C30.951 13.2994 31.018 13.6372 31.0178 13.9783Z" fill="#639FFF"/>
<path d="M42 12.9775H38.7854V15.5864H42V12.9775Z" fill="#639FFF"/>
<path d="M3.21456 12.9775H0V15.5864H3.21456V12.9775Z" fill="#639FFF"/>
<path d="M21.0008 0L18.6429 3.69636L21.0008 7.39427L23.3586 3.69636L21.0008 0Z" fill="#639FFF"/>
</g>
<defs>
<clipPath id="clip0_54_6">
<rect width="42" height="24" fill="white"/>
</clipPath>
</defs>
</svg>
