<svg width="42" height="24" viewBox="0 0 42 24" fill="none" xmlns="http://www.w3.org/2000/svg">
<path d="M35.6654 18.8319L33.5089 17.385C34.0859 16.5207 34.4341 15.524 34.5208 14.4884C34.6075 13.4529 34.4299 12.4122 34.0047 11.464L36.3718 10.3966C36.9795 11.7471 37.2334 13.2299 37.1099 14.7056C36.9863 16.1813 36.4892 17.6013 35.6654 18.8319Z" fill="#002053"/>
<path d="M7.4578 13.9783H4.86136V23.749H7.4578V13.9783Z" fill="#0071F2"/>
<path d="M17.5724 23.7475L16.127 21.0364L18.409 19.794L20.5128 23.7475H17.5724Z" fill="#0071F2"/>
<path d="M13.5802 22.6971C11.8558 22.6971 10.1701 22.1858 8.73627 21.2278C7.30246 20.2697 6.18495 18.908 5.52504 17.3149C4.86514 15.7217 4.69247 13.9686 5.02889 12.2774C5.36531 10.5861 6.1957 9.03253 7.41505 7.81318C8.6344 6.59383 10.1879 5.76344 11.8792 5.42702C13.5705 5.09061 15.3236 5.26327 16.9167 5.92318C18.5099 6.58308 19.8716 7.7006 20.8296 9.1344C21.7877 10.5682 22.299 12.2539 22.299 13.9783C22.3048 15.1249 22.0832 16.2612 21.647 17.3217C21.2109 18.3821 20.5689 19.3455 19.7581 20.1563C18.9474 20.967 17.9839 21.609 16.9235 22.0452C15.8631 22.4813 14.7268 22.7029 13.5802 22.6971ZM13.5802 7.85593C12.3693 7.85593 11.1856 8.215 10.1788 8.88774C9.17195 9.56048 8.38723 10.5167 7.92384 11.6354C7.46045 12.7541 7.33921 13.9851 7.57544 15.1727C7.81167 16.3604 8.39477 17.4513 9.25101 18.3075C10.1072 19.1637 11.1981 19.7468 12.3858 19.9831C13.5734 20.2193 14.8044 20.0981 15.9231 19.6347C17.0418 19.1713 17.998 18.3866 18.6708 17.3797C19.3435 16.3729 19.7026 15.1892 19.7026 13.9783C19.7005 12.3552 19.0548 10.7991 17.9071 9.6514C16.7594 8.50367 15.2033 7.85798 13.5802 7.85593Z" fill="#0071F2"/>
<path d="M28.4214 22.6971C26.9421 22.6971 25.4871 22.3206 24.1934 21.6032C22.8997 20.8858 21.8099 19.8511 21.0263 18.5963C20.2428 17.3416 19.7914 15.9081 19.7147 14.4308C19.6379 12.9535 19.9383 11.4809 20.5875 10.1517C21.2368 8.82251 22.2135 7.68035 23.4259 6.83272C24.6383 5.98509 26.0464 5.45987 27.5177 5.30649C28.989 5.1531 30.4752 5.3766 31.8363 5.95594C33.1974 6.53528 34.3888 7.45142 35.2982 8.61813L33.2502 10.2246C32.494 9.25401 31.4627 8.53385 30.291 8.15811C29.1193 7.78237 27.8616 7.7685 26.6819 8.11829C25.5022 8.46809 24.4553 9.16532 23.6778 10.119C22.9003 11.0727 22.4283 12.2386 22.3234 13.4646C22.2185 14.6906 22.4855 15.9197 23.0896 16.9917C23.6937 18.0637 24.6069 18.9286 25.7099 19.4738C26.813 20.019 28.0548 20.2191 29.2733 20.0479C30.4918 19.8768 31.6305 19.3423 32.5407 18.5143L34.2897 20.4338C32.6842 21.8935 30.5913 22.7007 28.4214 22.6971Z" fill="#0071F2"/>
<path d="M16.1782 13.9783C16.1782 14.4921 16.0258 14.9944 15.7403 15.4217C15.4548 15.8489 15.0491 16.1819 14.5744 16.3785C14.0997 16.5752 13.5773 16.6266 13.0733 16.5264C12.5694 16.4261 12.1064 16.1787 11.7431 15.8154C11.3798 15.452 11.1323 14.9891 11.0321 14.4852C10.9319 13.9812 10.9833 13.4588 11.1799 12.9841C11.3766 12.5094 11.7096 12.1036 12.1368 11.8182C12.564 11.5327 13.0663 11.3803 13.5802 11.3803C13.9214 11.3801 14.2593 11.4472 14.5746 11.5777C14.8899 11.7082 15.1764 11.8995 15.4177 12.1408C15.659 12.3821 15.8503 12.6686 15.9808 12.9839C16.1113 13.2992 16.1784 13.6371 16.1782 13.9783Z" fill="#002053"/>
<path d="M31.0178 13.9783C31.0178 14.4922 30.8654 14.9946 30.5799 15.4218C30.2943 15.8491 29.8885 16.1821 29.4137 16.3787C28.9389 16.5753 28.4164 16.6266 27.9124 16.5263C27.4084 16.4259 26.9455 16.1783 26.5822 15.8148C26.219 15.4513 25.9716 14.9883 25.8716 14.4842C25.7715 13.9801 25.8232 13.4577 26.02 12.983C26.2169 12.5083 26.5501 12.1027 26.9776 11.8174C27.405 11.5321 27.9075 11.38 28.4214 11.3803C28.7625 11.3803 29.1002 11.4475 29.4153 11.5781C29.7305 11.7087 30.0168 11.9001 30.2579 12.1414C30.499 12.3826 30.6902 12.669 30.8206 12.9842C30.951 13.2994 31.018 13.6372 31.0178 13.9783Z" fill="#002053"/>
<path d="M42 12.9775H38.7854V15.5864H42V12.9775Z" fill="#002053"/>
<path d="M3.21456 12.9775H0V15.5864H3.21456V12.9775Z" fill="#002053"/>
<path d="M21.0008 0L18.6429 3.69636L21.0008 7.39427L23.3586 3.69636L21.0008 0Z" fill="#002053"/>
</svg>
