<svg xmlns="http://www.w3.org/2000/svg" viewBox="0 0 500 500"><g id="freepik--background-simple--inject-44"><path d="M263.82,17.38c-25.1-2.43-50.5-2.44-74.76,5.23-44.7,14.13-67.44,52-81.2,94.25-.34,1.06-.68,2.13-1,3.19C90.48,171.28-5.43,200.71,6.56,280.28S77.09,347,84,403.45s89.59,86.1,170,80.66,77.39-70.85,123.17-100.28S508,341.32,488.33,237.77C475.49,170,442.13,103,388.05,57.92,359.34,34,322.28,25,286.07,20,278.71,19,271.28,18.1,263.82,17.38Z" style="fill:#0095FF"></path><path d="M263.82,17.38c-25.1-2.43-50.5-2.44-74.76,5.23-44.7,14.13-67.44,52-81.2,94.25-.34,1.06-.68,2.13-1,3.19C90.48,171.28-5.43,200.71,6.56,280.28S77.09,347,84,403.45s89.59,86.1,170,80.66,77.39-70.85,123.17-100.28S508,341.32,488.33,237.77C475.49,170,442.13,103,388.05,57.92,359.34,34,322.28,25,286.07,20,278.71,19,271.28,18.1,263.82,17.38Z" style="fill:#fff;opacity:0.7000000000000001"></path></g><g id="freepik--Circles--inject-44"><circle cx="253.62" cy="258.28" r="160.79" style="fill:#0095FF;stroke:#263238;stroke-miterlimit:10"></circle><circle cx="259.52" cy="108.94" r="4.98" style="fill:#263238;stroke:#263238;stroke-miterlimit:10"></circle><circle cx="211.24" cy="114.42" r="4.98" style="fill:#263238;stroke:#263238;stroke-miterlimit:10"></circle><circle cx="169.36" cy="134.42" r="4.98" style="fill:#263238;stroke:#263238;stroke-miterlimit:10"></circle><circle cx="133.59" cy="166.69" r="4.98" style="fill:#263238;stroke:#263238;stroke-miterlimit:10"></circle><path d="M115.67,210a5,5,0,1,0-5,5A5,5,0,0,0,115.67,210Z" style="fill:#263238;stroke:#263238;stroke-miterlimit:10"></path><circle cx="105.21" cy="258.77" r="4.98" style="fill:#263238;stroke:#263238;stroke-miterlimit:10"></circle><circle cx="110.19" cy="305.56" r="4.98" style="fill:#263238;stroke:#263238;stroke-miterlimit:10"></circle><circle cx="133.09" cy="348.87" r="4.98" style="fill:#263238;stroke:#263238;stroke-miterlimit:10"></circle><circle cx="165.94" cy="383.21" r="4.98" style="fill:#263238;stroke:#263238;stroke-miterlimit:10"></circle></g><g id="freepik--Stars--inject-44"><path d="M304.09,105.58,201.34,410.37A160.82,160.82,0,1,0,304.09,105.58Z" style="fill:#263238;stroke:#263238;stroke-miterlimit:10"></path><polygon points="391.98 287.72 394.48 298.17 404.77 295.11 396.98 302.5 404.77 309.88 394.48 306.83 391.98 317.27 389.48 306.83 379.18 309.88 386.98 302.5 379.18 295.11 389.48 298.17 391.98 287.72" style="fill:#0095FF"></polygon><polygon points="222.32 382.74 224.82 393.18 235.12 390.12 227.32 397.51 235.12 404.9 224.82 401.84 222.32 412.28 219.82 401.84 209.53 404.9 217.32 397.51 209.53 390.12 219.82 393.18 222.32 382.74" style="fill:#0095FF"></polygon><polygon points="379.51 169.4 382.01 179.85 392.3 176.79 384.51 184.18 392.3 191.56 382.01 188.51 379.51 198.95 377 188.51 366.71 191.56 374.5 184.18 366.71 176.79 377 179.85 379.51 169.4" style="fill:#fff"></polygon><polygon points="334.41 355.37 336.91 365.81 347.2 362.76 339.41 370.14 347.2 377.53 336.91 374.48 334.41 384.92 331.91 374.48 321.62 377.53 329.41 370.14 321.62 362.76 331.91 365.81 334.41 355.37" style="fill:#fff"></polygon><polygon points="312.13 115.25 314.63 125.69 324.93 122.64 317.14 130.02 324.93 137.41 314.63 134.35 312.13 144.8 309.63 134.35 299.34 137.41 307.13 130.02 299.34 122.64 309.63 125.69 312.13 115.25" style="fill:#0095FF"></polygon><polygon points="375.51 210.66 377.01 216.9 383.16 215.07 378.5 219.49 383.16 223.9 377.01 222.08 375.51 228.32 374.02 222.08 367.86 223.9 372.52 219.49 367.86 215.07 374.02 216.9 375.51 210.66" style="fill:#0095FF"></polygon><polygon points="377.17 333.69 378.66 339.93 384.81 338.1 380.16 342.51 384.81 346.93 378.66 345.1 377.17 351.35 375.67 345.1 369.52 346.93 374.18 342.51 369.52 338.1 375.67 339.93 377.17 333.69" style="fill:#0095FF"></polygon><polygon points="355.98 149.71 357.48 155.95 363.63 154.13 358.97 158.54 363.63 162.96 357.48 161.13 355.98 167.37 354.49 161.13 348.34 162.96 353 158.54 348.34 154.13 354.49 155.95 355.98 149.71" style="fill:#0095FF"></polygon><polygon points="293.49 370.45 294.99 376.69 301.14 374.86 296.48 379.28 301.14 383.69 294.99 381.87 293.49 388.11 292 381.87 285.84 383.69 290.5 379.28 285.84 374.86 292 376.69 293.49 370.45" style="fill:#0095FF"></polygon><polygon points="250.38 392.42 251.87 398.67 258.02 396.84 253.36 401.25 258.02 405.67 251.87 403.84 250.38 410.08 248.88 403.84 242.73 405.67 247.38 401.25 242.73 396.84 248.88 398.67 250.38 392.42" style="fill:#fff"></polygon><polygon points="400.09 236.95 401.58 243.19 407.74 241.36 403.08 245.78 407.74 250.19 401.58 248.37 400.09 254.61 398.6 248.37 392.44 250.19 397.1 245.78 392.44 241.36 398.6 243.19 400.09 236.95" style="fill:#0095FF"></polygon><path d="M285.27,398.66a3.46,3.46,0,1,1-3.46-3.45A3.46,3.46,0,0,1,285.27,398.66Z" style="fill:#fff"></path><path d="M251.29,381.39a3.46,3.46,0,1,1-3.45-3.46A3.45,3.45,0,0,1,251.29,381.39Z" style="fill:#0095FF"></path><circle cx="366.09" cy="319.59" r="3.45" style="fill:#fff"></circle><path d="M400.1,212.67a3.46,3.46,0,1,1-3.46-3.46A3.45,3.45,0,0,1,400.1,212.67Z" style="fill:#0095FF"></path><path d="M334.21,158a3.46,3.46,0,1,1-3.45-3.45A3.45,3.45,0,0,1,334.21,158Z" style="fill:#fff"></path><path d="M332.9,133.28a1.65,1.65,0,1,1-3.29,0,1.65,1.65,0,0,1,3.29,0Z" style="fill:#0095FF"></path><path d="M364.13,200.76a1.65,1.65,0,1,1-1.65-1.65A1.64,1.64,0,0,1,364.13,200.76Z" style="fill:#0095FF"></path><path d="M399.61,267.91a1.65,1.65,0,1,1-1.65-1.65A1.64,1.64,0,0,1,399.61,267.91Z" style="fill:#fff"></path><path d="M362.32,360.58a1.65,1.65,0,1,1-1.64-1.64A1.64,1.64,0,0,1,362.32,360.58Z" style="fill:#0095FF"></path><path d="M375.09,280a1.65,1.65,0,1,1-1.64-1.64A1.64,1.64,0,0,1,375.09,280Z" style="fill:#0095FF"></path><circle cx="272.07" cy="378.5" r="1.65" style="fill:#0095FF"></circle><circle cx="313.13" cy="393.51" r="1.65" style="fill:#0095FF"></circle></g><g id="freepik--Moon--inject-44"><path d="M286.31,149.72c27.82,24.49,28.59,74.53,2.87,119.76-1.78,2.33-5.21,6.17-9.25,7.45-5.95,1.89-14,3.44-14.95,5.19s.25,4.43,3,6.75a7.09,7.09,0,0,1,2.33,7.17c-27.88,32-64.56,48.61-94.8,44.43A113.37,113.37,0,1,0,286.31,149.72Z" style="fill:#fff;stroke:#263238;stroke-miterlimit:10"></path><path d="M309.23,264.26s-6.35,6.54-10.69,6.18-5.27-2.4-5.27-2.4.5,4.79,6.55,8.25,17.68,3.41,17.68,3.41c.19.28-8-1.18-12-3.46-6.32-3.61-5.36-5.13-4.24-5.07Z" style="fill:#263238;stroke:#263238;stroke-miterlimit:10"></path><path d="M303.48,281c-.48,3.05-1.83,5.37-3,5.18s-1.76-2.81-1.28-5.86,1.83-5.36,3-5.17S304,277.9,303.48,281Z" style="fill:#263238;stroke:#263238;stroke-miterlimit:10"></path><path d="M260.58,308.12a28,28,0,0,0,15.07,8,33.85,33.85,0,0,0,17.84-1.59" style="fill:none;stroke:#263238;stroke-miterlimit:10"></path><path d="M291.31,310.44a42.22,42.22,0,0,1,4,8.48" style="fill:none;stroke:#263238;stroke-miterlimit:10"></path><path d="M271.65,291.65s2.07,2.83,1.47,4.62,1.45,2.74,4.15,1.6a4.22,4.22,0,0,0,2.61-4.62" style="fill:none;stroke:#263238;stroke-miterlimit:10"></path><circle cx="307.11" cy="306.8" r="9.77" transform="translate(-108.98 430.56) rotate(-61.54)" style="fill:#0095FF"></circle><path d="M306,255.65s-5.66-3-.33-6.29,17,.42,21.49,13.54c-4.24-5.92-10.17-13.79-15.55-9.59C310.55,254.13,310.37,253.31,306,255.65Z" style="fill:#263238;stroke:#263238;stroke-miterlimit:10"></path><path d="M357.77,234a107.15,107.15,0,0,0-13-31.83" style="fill:none;stroke:#263238;stroke-miterlimit:10"></path><path d="M330.83,332.55a107.51,107.51,0,0,0,29.62-79" style="fill:none;stroke:#263238;stroke-miterlimit:10"></path></g></svg>