<svg width="13" height="13" viewBox="0 0 13 13" fill="none" xmlns="http://www.w3.org/2000/svg">
<path d="M5.488 1.32347C5.543 0.992246 5.83022 0.749023 6.16633 0.749023H6.83428C7.17039 0.749023 7.45761 0.992246 7.51261 1.32347L7.60367 1.8698C7.64644 2.12891 7.83833 2.33669 8.08033 2.43813C8.32356 2.53836 8.60283 2.52491 8.81672 2.37213L9.26711 2.05008C9.39957 1.95539 9.56134 1.91079 9.72362 1.92422C9.88589 1.93765 10.0381 2.00824 10.1532 2.12341L10.6256 2.59641C10.8639 2.83413 10.8945 3.20875 10.6989 3.48252L10.3769 3.93291C10.2241 4.1468 10.2107 4.42547 10.3115 4.66869C10.4123 4.9113 10.6201 5.10258 10.8798 5.14536L11.4256 5.23702C11.7574 5.29202 12 5.57863 12 5.91475V6.5833C12 6.91941 11.7574 7.20663 11.4256 7.26163L10.8792 7.35269C10.6201 7.39547 10.4123 7.58675 10.3115 7.82936C10.2107 8.07258 10.2241 8.35125 10.3769 8.56513L10.6989 9.01613C10.8945 9.2893 10.8633 9.66391 10.6256 9.90225L10.1526 10.3746C10.0376 10.4897 9.88543 10.5601 9.7233 10.5736C9.56117 10.587 9.39952 10.5425 9.26711 10.448L8.81611 10.1259C8.60222 9.97313 8.32356 9.95969 8.08094 10.0605C7.83772 10.1614 7.64706 10.3691 7.60367 10.6282L7.51261 11.1746C7.45761 11.5058 7.17039 11.749 6.83428 11.749H6.16572C5.82961 11.749 5.543 11.5058 5.48739 11.1746L5.39694 10.6282C5.35356 10.3691 5.16228 10.1614 4.91967 10.0599C4.67644 9.95969 4.39778 9.97313 4.18389 10.1259L3.73289 10.448C3.45972 10.6435 3.08511 10.6124 2.84678 10.3746L2.37439 9.90163C2.25921 9.78654 2.18862 9.6343 2.1752 9.47203C2.16177 9.30976 2.20637 9.14799 2.30106 9.01552L2.62311 8.56513C2.77589 8.35125 2.78933 8.07258 2.68911 7.82936C2.58828 7.58675 2.37989 7.39547 2.12078 7.35269L1.57444 7.26102C1.24322 7.20602 1 6.9188 1 6.5833V5.91475C1 5.57863 1.24322 5.29141 1.57444 5.23641L2.12078 5.14536C2.37989 5.10258 2.58828 4.9113 2.68911 4.66869C2.78994 4.42547 2.7765 4.1468 2.62311 3.93291L2.30167 3.48191C2.20698 3.34945 2.16238 3.18768 2.17581 3.02541C2.18924 2.86313 2.25982 2.7109 2.375 2.5958L2.84739 2.12341C2.96248 2.00824 3.11472 1.93765 3.27699 1.92422C3.43927 1.91079 3.60104 1.95539 3.7335 2.05008L4.18389 2.37213C4.39778 2.52491 4.67706 2.53836 4.91967 2.43752C5.16228 2.33669 5.35356 2.12891 5.39633 1.8698L5.488 1.32347Z" stroke="#002053" stroke-width="0.8" stroke-linecap="round" stroke-linejoin="round"/>
<path d="M9 6.24902C9 6.91206 8.73661 7.54795 8.26777 8.01679C7.79893 8.48563 7.16304 8.74902 6.5 8.74902C5.83696 8.74902 5.20107 8.48563 4.73223 8.01679C4.26339 7.54795 4 6.91206 4 6.24902C4 5.58598 4.26339 4.9501 4.73223 4.48126C5.20107 4.01242 5.83696 3.74902 6.5 3.74902C7.16304 3.74902 7.79893 4.01242 8.26777 4.48126C8.73661 4.9501 9 5.58598 9 6.24902Z" stroke="#002053" stroke-width="0.8" stroke-linecap="round" stroke-linejoin="round"/>
</svg>
