<svg width="500" height="500" viewBox="0 0 500 500" fill="none" xmlns="http://www.w3.org/2000/svg">
<path d="M263.82 17.38C238.72 14.95 213.32 14.94 189.06 22.61C144.36 36.74 121.62 74.61 107.86 116.86C107.52 117.92 107.18 118.99 106.86 120.05C90.48 171.28 -5.43001 200.71 6.55999 280.28C18.55 359.85 77.09 347 84 403.45C90.91 459.9 173.59 489.55 254 484.11C334.41 478.67 331.39 413.26 377.17 383.83C422.95 354.4 508 341.32 488.33 237.77C475.49 170 442.13 103 388.05 57.92C359.34 34 322.28 25 286.07 20C278.71 19 271.28 18.1 263.82 17.38Z" fill="#0095FF"/>
<path opacity="0.7" d="M263.82 17.38C238.72 14.95 213.32 14.94 189.06 22.61C144.36 36.74 121.62 74.61 107.86 116.86C107.52 117.92 107.18 118.99 106.86 120.05C90.48 171.28 -5.43001 200.71 6.55999 280.28C18.55 359.85 77.09 347 84 403.45C90.91 459.9 173.59 489.55 254 484.11C334.41 478.67 331.39 413.26 377.17 383.83C422.95 354.4 508 341.32 488.33 237.77C475.49 170 442.13 103 388.05 57.92C359.34 34 322.28 25 286.07 20C278.71 19 271.28 18.1 263.82 17.38Z" fill="white"/>
<path d="M253.62 419.07C342.422 419.07 414.41 347.082 414.41 258.28C414.41 169.478 342.422 97.49 253.62 97.49C164.818 97.49 92.83 169.478 92.83 258.28C92.83 347.082 164.818 419.07 253.62 419.07Z" fill="#0095FF" stroke="#263238" stroke-miterlimit="10"/>
<path d="M259.52 113.92C262.27 113.92 264.5 111.69 264.5 108.94C264.5 106.19 262.27 103.96 259.52 103.96C256.77 103.96 254.54 106.19 254.54 108.94C254.54 111.69 256.77 113.92 259.52 113.92Z" fill="#263238" stroke="#263238" stroke-miterlimit="10"/>
<path d="M211.24 119.4C213.99 119.4 216.22 117.17 216.22 114.42C216.22 111.67 213.99 109.44 211.24 109.44C208.49 109.44 206.26 111.67 206.26 114.42C206.26 117.17 208.49 119.4 211.24 119.4Z" fill="#263238" stroke="#263238" stroke-miterlimit="10"/>
<path d="M169.36 139.4C172.11 139.4 174.34 137.17 174.34 134.42C174.34 131.67 172.11 129.44 169.36 129.44C166.61 129.44 164.38 131.67 164.38 134.42C164.38 137.17 166.61 139.4 169.36 139.4Z" fill="#263238" stroke="#263238" stroke-miterlimit="10"/>
<path d="M133.59 171.67C136.34 171.67 138.57 169.44 138.57 166.69C138.57 163.94 136.34 161.71 133.59 161.71C130.84 161.71 128.61 163.94 128.61 166.69C128.61 169.44 130.84 171.67 133.59 171.67Z" fill="#263238" stroke="#263238" stroke-miterlimit="10"/>
<path d="M115.67 210C115.67 209.011 115.377 208.044 114.827 207.222C114.278 206.4 113.497 205.759 112.583 205.381C111.67 205.002 110.664 204.903 109.695 205.096C108.725 205.289 107.834 205.765 107.134 206.464C106.435 207.164 105.959 208.055 105.766 209.025C105.573 209.994 105.672 211 106.051 211.913C106.429 212.827 107.07 213.608 107.892 214.157C108.714 214.707 109.681 215 110.67 215C111.996 215 113.268 214.473 114.206 213.536C115.143 212.598 115.67 211.326 115.67 210Z" fill="#263238" stroke="#263238" stroke-miterlimit="10"/>
<path d="M105.21 263.75C107.96 263.75 110.19 261.52 110.19 258.77C110.19 256.02 107.96 253.79 105.21 253.79C102.46 253.79 100.23 256.02 100.23 258.77C100.23 261.52 102.46 263.75 105.21 263.75Z" fill="#263238" stroke="#263238" stroke-miterlimit="10"/>
<path d="M110.19 310.54C112.94 310.54 115.17 308.31 115.17 305.56C115.17 302.81 112.94 300.58 110.19 300.58C107.44 300.58 105.21 302.81 105.21 305.56C105.21 308.31 107.44 310.54 110.19 310.54Z" fill="#263238" stroke="#263238" stroke-miterlimit="10"/>
<path d="M133.09 353.85C135.84 353.85 138.07 351.62 138.07 348.87C138.07 346.12 135.84 343.89 133.09 343.89C130.34 343.89 128.11 346.12 128.11 348.87C128.11 351.62 130.34 353.85 133.09 353.85Z" fill="#263238" stroke="#263238" stroke-miterlimit="10"/>
<path d="M165.94 388.19C168.69 388.19 170.92 385.96 170.92 383.21C170.92 380.46 168.69 378.23 165.94 378.23C163.19 378.23 160.96 380.46 160.96 383.21C160.96 385.96 163.19 388.19 165.94 388.19Z" fill="#263238" stroke="#263238" stroke-miterlimit="10"/>
<path d="M294.79 65.41C295.93 77.84 291.66 90.64 281.46 99.11C270.53 107.43 259.92 114.29 254.19 126.77C249.82 136.49 246.9 146.53 248.51 156.77C264.27 157.87 278.93 164.06 294.38 166.62C285.33 155.54 282.48 140.45 287.63 127.09C292.78 113.73 301.43 101.86 300.03 87.09C299.41 79.34 298.63 72.32 294.79 65.4V65.41Z" fill="white" stroke="#263238" stroke-miterlimit="10"/>
<path d="M219.905 457.493C218.457 445.095 222.407 432.193 232.394 423.472C243.113 414.883 253.55 407.761 258.968 395.143C263.095 385.317 265.764 375.208 263.9 365.011C248.118 364.303 233.308 358.479 217.799 356.304C227.122 367.156 230.346 382.17 225.53 395.654C220.714 409.138 212.361 421.219 214.128 435.95C214.941 443.682 215.895 450.68 219.906 457.503L219.905 457.493Z" fill="white" stroke="#263238" stroke-miterlimit="10"/>
<path d="M277.48 154.22C270.523 152.213 263.458 150.597 256.32 149.38C256.59 143.79 258.32 137.62 261.69 130.14C265.86 121.08 273.61 115.28 282.59 108.56L286.44 105.66L286.58 105.55L286.72 105.44C287.57 104.73 288.39 103.99 289.19 103.22C287.97 106.4 286.44 109.64 284.84 113.06C283.24 116.48 281.45 120.27 279.96 124.13C276.238 133.887 275.855 144.602 278.87 154.6L277.48 154.22Z" fill="#263238"/>
<path d="M235.002 368.28C242.008 370.114 249.11 371.554 256.276 372.593C256.145 378.188 254.569 384.399 251.386 391.96C247.443 401.121 239.839 407.112 231.029 414.053L227.252 417.048L227.115 417.161L226.978 417.275C226.146 418.006 225.344 418.766 224.564 419.555C225.704 416.346 227.153 413.069 228.668 409.61C230.182 406.152 231.878 402.318 233.271 398.422C236.749 388.576 236.866 377.855 233.603 367.935L235.002 368.28Z" fill="#263238"/>
<path d="M233.17 61.85C238.09 73.33 237.98 86.85 230.9 98.02C223.08 109.31 215.11 119.12 213.52 132.75C212.36 143.35 212.69 153.8 217.39 163.05C232.72 159.23 248.58 160.59 264.06 158.24C252.06 150.5 244.65 137.03 245.43 122.73C246.21 108.43 250.75 94.48 244.86 80.86C241.86 73.68 238.96 67.25 233.17 61.86V61.85Z" fill="white" stroke="#263238" stroke-miterlimit="10"/>
<path d="M281.595 459.52C276.391 448.166 276.165 434.647 282.965 423.305C290.502 411.824 298.226 401.819 299.476 388.154C300.372 377.528 299.783 367.089 294.854 357.959C279.624 362.159 263.735 361.194 248.318 363.928C260.507 371.367 268.25 384.649 267.825 398.964C267.401 413.279 263.209 427.337 269.436 440.806C272.613 447.91 275.672 454.266 281.594 459.51L281.595 459.52Z" fill="white" stroke="#263238" stroke-miterlimit="10"/>
<path d="M222.53 153.6C221.06 148.21 220.81 141.8 221.7 133.65C222.85 123.73 228.44 115.82 234.9 106.65L237.67 102.71L237.77 102.57L237.86 102.42C238.45 101.48 239.01 100.52 239.53 99.54C239.35 102.94 238.9 106.54 238.43 110.24C237.94 114.13 237.43 118.15 237.21 122.29C236.688 132.718 239.635 143.024 245.59 151.6L244.15 151.67C236.913 151.907 229.695 152.552 222.53 153.6Z" fill="#263238"/>
<path d="M289.951 367.534C291.554 372.886 291.964 379.287 291.277 387.457C290.373 397.403 284.982 405.449 278.752 414.777L276.081 418.784L275.984 418.927L275.898 419.079C275.331 420.034 274.795 421.007 274.3 422C274.395 418.596 274.756 414.986 275.134 411.276C275.527 407.375 275.937 403.343 276.054 399.199C276.316 388.762 273.114 378.532 266.948 370.106L268.386 370.001C275.615 369.584 282.814 368.76 289.951 367.534Z" fill="#263238"/>
<path d="M173.46 77.51C181.69 86.9 185.76 99.76 182.46 112.61C178.46 125.76 173.95 137.55 176.66 151.02C178.84 161.45 182.37 171.29 189.66 178.63C203.05 170.26 218.56 166.63 232.56 159.63C218.73 155.98 207.56 145.45 203.87 131.63C200.18 117.81 200.27 103.11 190.46 92C185.4 86.09 180.64 80.87 173.46 77.53V77.51Z" fill="white" stroke="#263238" stroke-miterlimit="10"/>
<path d="M340.897 442.381C332.436 433.198 328.048 420.443 331.027 407.515C334.699 394.27 338.915 382.371 335.871 368.973C333.432 358.6 329.659 348.851 322.188 341.695C309.011 350.395 293.596 354.409 279.774 361.755C293.69 365.06 305.119 375.309 309.151 389.033C313.184 402.757 313.459 417.455 323.542 428.318C328.747 434.1 333.636 439.2 340.897 442.361L340.897 442.381Z" fill="white" stroke="#263238" stroke-miterlimit="10"/>
<path d="M191.7 168.06C188.63 163.38 186.42 157.36 184.7 149.33C182.7 139.55 185.6 130.33 188.92 119.59C189.393 118.07 189.863 116.533 190.33 114.98V114.81V114.64C190.61 113.56 190.84 112.48 191.03 111.39C191.91 114.68 192.58 118.2 193.29 121.91C194 125.62 194.79 129.73 195.85 133.74C198.617 143.825 204.648 152.708 213 159L211.66 159.52C204.851 161.987 198.186 164.838 191.7 168.06Z" fill="#263238"/>
<path d="M320.412 352.312C323.597 356.915 325.956 362.878 327.875 370.862C330.118 380.59 327.448 389.879 324.396 400.698C323.96 402.229 323.529 403.777 323.101 405.342L323.105 405.512L323.109 405.682C322.856 406.768 322.653 407.854 322.49 408.948C321.529 405.681 320.771 402.179 319.969 398.488C319.167 394.796 318.275 390.707 317.116 386.725C314.1 376.712 307.85 367.982 299.344 361.899L300.67 361.346C307.416 358.71 314.007 355.694 320.412 352.312Z" fill="#263238"/>
<path d="M121.52 110.86C132.25 117.24 140.09 128.22 140.95 141.45C141.26 155.18 140.57 167.8 147.3 179.76C152.6 189 159 197.28 168.24 202C178.39 189.9 192.02 181.67 203.17 170.68C188.89 171.48 175.01 164.93 167.22 152.9C159.43 140.87 154.93 126.9 142.15 119.36C135.52 115.36 129.38 111.81 121.52 110.86Z" fill="white" stroke="#263238" stroke-miterlimit="10"/>
<path d="M391.992 407.75C381.107 401.639 372.996 390.857 371.808 377.652C371.156 363.934 371.532 351.301 364.507 339.512C358.979 330.407 352.375 322.288 343.021 317.799C333.175 330.148 319.754 338.714 308.88 349.978C323.136 348.823 337.174 355.026 345.261 366.859C353.348 378.692 358.194 392.545 371.157 399.765C377.884 403.599 384.111 406.996 391.992 407.75Z" fill="white" stroke="#263238" stroke-miterlimit="10"/>
<path d="M166.85 191.33C162.48 187.83 158.52 182.79 154.44 175.68C149.55 166.98 149.44 157.3 149.26 146.08C149.26 144.49 149.26 142.88 149.18 141.26V140.91C149.11 139.8 149 138.7 148.84 137.61C150.7 140.46 152.42 143.61 154.24 146.91C156.06 150.21 158.08 153.91 160.33 157.37C166.023 166.128 174.466 172.745 184.33 176.18L183.24 177.06C177.511 181.502 172.039 186.267 166.85 191.33Z" fill="#263238"/>
<path d="M344.676 328.432C349.131 331.822 353.215 336.762 357.471 343.768C362.576 352.344 362.926 362.018 363.385 373.23C363.425 374.82 363.465 376.429 363.585 378.047L363.594 378.397C363.691 379.505 363.828 380.602 364.015 381.687C362.085 378.884 360.287 375.778 358.386 372.524C356.484 369.271 354.373 365.622 352.038 362.219C346.129 353.605 337.524 347.2 327.578 344.011L328.645 343.105C334.263 338.521 339.615 333.622 344.676 328.432Z" fill="#263238"/>
<path d="M82.43 158.62C94.6 161.37 105.43 169.39 110.36 181.71C114.89 194.71 118.14 206.88 128.24 216.19C136.13 223.35 144.78 229.19 155.02 230.86C160.94 216.22 171.36 204.18 178.57 190.28C165.23 195.46 150 193.51 138.88 184.48C127.76 175.45 119.16 163.57 104.68 160.33C97.11 158.53 90.2 157.1 82.43 158.62Z" fill="white" stroke="#263238" stroke-miterlimit="10"/>
<path d="M429.883 359.033C417.648 356.586 406.622 348.838 401.387 336.644C396.536 323.761 392.984 311.676 382.656 302.62C374.59 295.658 365.798 290.035 355.52 288.62C349.965 303.402 339.848 315.698 332.986 329.773C346.193 324.263 361.466 325.833 372.807 334.584C384.148 343.335 393.041 354.998 407.597 357.877C415.21 359.488 422.153 360.746 429.883 359.033Z" fill="white" stroke="#263238" stroke-miterlimit="10"/>
<path d="M150.4 221.15C145.17 219.15 139.84 215.6 133.77 210.09C126.43 203.33 123.31 194.16 119.69 183.55C119.183 182.037 118.66 180.517 118.12 178.99L118.07 178.82L118 178.66C117.59 177.66 117.14 176.66 116.66 175.66C119.3 177.81 121.91 180.26 124.66 182.84C127.41 185.42 130.47 188.29 133.66 190.91C141.796 197.452 151.863 201.125 162.3 201.36L161.52 202.56C157.471 208.545 153.758 214.751 150.4 221.15Z" fill="#263238"/>
<path d="M360.379 298.212C365.657 300.081 371.074 303.498 377.279 308.855C384.785 315.431 388.132 324.52 392.014 335.037C392.559 336.537 393.12 338.044 393.697 339.556L393.752 339.725L393.826 339.883C394.26 340.873 394.735 341.861 395.24 342.849C392.547 340.765 389.877 338.381 387.064 335.87C384.25 333.359 381.12 330.566 377.866 328.026C369.57 321.689 359.414 318.267 348.975 318.292L349.725 317.073C353.624 310.989 357.181 304.692 360.379 298.212Z" fill="#263238"/>
<path d="M60 216.12C72.44 214.98 85.23 219.25 93.7 229.45C102.02 240.38 108.88 250.99 121.36 256.72C131.09 261.09 141.12 264.01 151.36 262.4C152.46 246.64 158.66 231.98 161.21 216.53C150.13 225.53 135.04 228.43 121.68 223.27C108.32 218.11 96.46 209.48 81.68 210.88C73.92 211.5 66.9 212.27 59.98 216.12H60Z" fill="white" stroke="#263238" stroke-miterlimit="10"/>
<path d="M450.876 300.993C438.469 302.442 425.576 298.492 416.855 288.505C408.266 277.785 401.145 267.349 388.526 261.931C378.691 257.804 368.591 255.135 358.394 256.999C357.686 272.781 351.853 287.591 349.687 303.099C360.54 293.827 375.554 290.553 389.038 295.379C402.522 300.205 414.593 308.538 429.333 306.771C437.076 305.958 444.074 305.014 450.896 300.993L450.876 300.993Z" fill="white" stroke="#263238" stroke-miterlimit="10"/>
<path d="M144 254.58C138.41 254.31 132.25 252.58 124.76 249.21C115.69 245.05 109.89 237.3 103.17 228.32C102.17 227.04 101.25 225.76 100.27 224.47L100.16 224.33L100.05 224.19C99.35 223.34 98.61 222.52 97.85 221.74C101.08 222.97 104.34 224.5 107.67 226.07C111.22 227.74 114.88 229.46 118.75 230.95C124.087 233.008 129.76 234.059 135.48 234.05C140.129 234.053 144.755 233.379 149.21 232.05C149.09 232.51 148.96 232.97 148.84 233.44C146.828 240.389 145.212 247.447 144 254.58Z" fill="#263238"/>
<path d="M365.947 264.633C371.541 264.764 377.743 266.341 385.314 269.523C394.485 273.457 400.476 281.06 407.417 289.87C408.448 291.125 409.4 292.382 410.411 293.647L410.525 293.784L410.638 293.921C411.359 294.754 412.119 295.555 412.899 296.316C409.639 295.167 406.342 293.718 402.974 292.231C399.384 290.65 395.682 289.022 391.776 287.628C386.389 285.704 380.692 284.794 374.974 284.945C370.326 285.058 365.719 285.846 361.298 287.286C361.407 286.823 361.525 286.36 361.633 285.887C363.472 278.89 364.912 271.794 365.947 264.633Z" fill="#263238"/>
<path d="M56.45 277.74C67.92 272.82 81.45 272.92 92.62 280C103.9 287.83 113.71 295.8 127.35 297.39C137.95 298.54 148.4 298.22 157.64 293.52C153.82 278.19 155.18 262.33 152.84 246.85C145.09 258.85 131.63 266.25 117.32 265.48C103.01 264.71 89.07 260.16 75.46 266.05C68.28 269.05 61.84 271.94 56.46 277.74H56.45Z" fill="white" stroke="#263238" stroke-miterlimit="10"/>
<path d="M452.894 239.304C441.55 244.508 428.021 244.744 416.679 237.944C405.208 230.397 395.202 222.673 381.527 221.423C370.902 220.536 360.463 221.116 351.343 226.044C355.543 241.275 354.577 257.164 357.301 272.581C364.751 260.392 378.023 252.659 392.347 253.073C406.672 253.487 420.721 257.69 434.18 251.463C441.283 248.286 447.649 245.236 452.884 239.304L452.894 239.304Z" fill="white" stroke="#263238" stroke-miterlimit="10"/>
<path d="M136.85 289.72C133.973 289.704 131.099 289.534 128.24 289.21C118.33 288.05 110.41 282.47 101.24 276.01C99.94 275.09 98.63 274.16 97.24 273.24L97.1 273.14L96.95 273.05C96.02 272.46 95.06 271.9 94.09 271.39C97.52 271.57 101.09 272.01 104.78 272.48C108.66 272.97 112.68 273.48 116.78 273.7C117.613 273.74 118.443 273.76 119.27 273.76C128.856 273.752 138.212 270.822 146.09 265.36C146.09 265.82 146.14 266.29 146.16 266.75C146.396 273.984 147.041 281.199 148.09 288.36C144.419 289.304 140.64 289.761 136.85 289.72Z" fill="#263238"/>
<path d="M372.221 229.326C375.097 229.271 377.975 229.37 380.841 229.622C390.777 230.536 398.833 235.917 408.161 242.147C409.483 243.034 410.816 243.932 412.228 244.817L412.371 244.913L412.523 244.999C413.467 245.566 414.441 246.102 415.423 246.588C411.99 246.493 408.41 246.142 404.709 245.764C400.818 245.37 396.787 244.961 392.683 244.843C391.849 244.823 391.018 244.824 390.192 244.844C380.609 245.091 371.329 248.253 363.589 253.909C363.578 253.449 363.516 252.98 363.485 252.521C363.069 245.295 362.245 238.098 361.018 230.965C364.664 229.931 368.431 229.38 372.221 229.326Z" fill="#263238"/>
<path d="M72.11 337.44C81.49 329.21 94.35 325.15 107.2 328.44C120.36 332.39 132.2 336.94 145.61 334.24C156.05 332.06 165.88 328.52 173.23 321.24C164.85 307.84 161.23 292.34 154.23 278.34C150.58 292.17 140.06 303.34 126.23 307.03C112.4 310.72 97.72 310.7 86.59 320.51C80.69 325.57 75.46 330.32 72.13 337.51L72.11 337.44Z" fill="white" stroke="#263238" stroke-miterlimit="10"/>
<path d="M435.755 180.012C426.582 188.473 413.827 192.851 400.899 189.881C387.645 186.26 375.696 182.005 362.357 185.038C351.974 187.477 342.235 191.26 335.069 198.72C343.779 211.908 347.783 227.313 355.129 241.135C358.434 227.218 368.673 215.79 382.407 211.758C396.141 207.725 410.817 207.38 421.7 197.297C427.472 192.091 432.583 187.213 435.733 179.942L435.755 180.012Z" fill="white" stroke="#263238" stroke-miterlimit="10"/>
<path d="M137.31 326.81C129.87 326.81 122.6 324.56 114.17 321.95C112.66 321.48 111.17 321 109.57 320.54L109.4 320.49L109.23 320.44C108.157 320.173 107.077 319.943 105.99 319.75C109.28 318.87 112.79 318.2 116.5 317.49C120.21 316.78 124.33 315.99 128.33 314.92C138.405 312.199 147.297 306.222 153.62 297.92L154.13 299.26C156.593 306.081 159.438 312.758 162.65 319.26C157.97 322.32 151.96 324.54 143.93 326.26C141.747 326.658 139.529 326.843 137.31 326.81Z" fill="#263238"/>
<path d="M370.839 192.259C378.277 192.074 385.6 194.143 394.093 196.543C395.614 196.975 397.115 197.418 398.726 197.838L398.897 197.884L399.069 197.929C400.148 198.169 401.234 198.372 402.325 198.539C399.058 199.5 395.565 200.257 391.874 201.059C388.183 201.861 384.084 202.753 380.112 203.922C370.108 206.893 361.367 213.089 355.252 221.546L354.709 220.219C352.077 213.461 349.067 206.857 345.694 200.437C350.297 197.261 356.25 194.893 364.235 192.974C366.408 192.521 368.619 192.282 370.839 192.259Z" fill="#263238"/>
<path d="M105.45 389.38C111.83 378.66 122.81 370.82 136.04 369.96C149.77 369.65 162.39 370.34 174.36 363.61C183.61 358.31 191.87 351.9 196.59 342.67C184.49 332.52 176.27 318.88 165.27 307.74C166.08 322.02 159.52 335.9 147.49 343.68C135.46 351.46 121.49 355.98 113.96 368.75C109.9 375.39 106.4 381.53 105.45 389.38Z" fill="white" stroke="#263238" stroke-miterlimit="10"/>
<path d="M401.134 128.916C395.022 139.792 384.241 147.902 371.036 149.091C357.318 149.742 344.685 149.366 332.886 156.391C323.77 161.92 315.672 168.533 311.183 177.877C323.532 187.723 332.088 201.155 343.362 212.018C342.197 197.763 348.41 183.724 360.243 175.647C372.076 167.571 385.929 162.705 393.139 149.752C397.033 143.013 400.379 136.788 401.134 128.916Z" fill="white" stroke="#263238" stroke-miterlimit="10"/>
<path d="M132.2 362.09C135.06 360.23 138.2 358.51 141.5 356.68C144.8 354.85 148.5 352.84 151.96 350.59C160.703 344.886 167.311 336.446 170.75 326.59L171.65 327.71C176.097 333.429 180.864 338.891 185.93 344.07C182.42 348.43 177.39 352.4 170.27 356.47C161.57 361.36 151.89 361.47 140.68 361.66C139.09 361.66 137.48 361.66 135.86 361.74H135.68H135.51C134.4 361.82 133.29 361.93 132.2 362.09Z" fill="#263238"/>
<path d="M375.071 156.863C372.258 158.794 369.161 160.591 365.908 162.503C362.654 164.414 359.005 166.515 355.602 168.851C347.004 174.77 340.608 183.372 337.415 193.31L336.487 192.213C331.9 186.606 326.998 181.264 321.805 176.213C325.206 171.767 330.135 167.673 337.152 163.428C345.728 158.323 355.402 157.972 366.604 157.504C368.193 157.464 369.803 157.424 371.42 157.304L371.6 157.3L371.77 157.295C372.878 157.188 373.985 157.05 375.071 156.863Z" fill="#263238"/>
<path d="M153.21 428.48C155.97 416.31 163.98 405.48 176.3 400.55C189.3 396.02 201.48 392.77 210.78 382.67C217.94 374.77 223.78 366.13 225.46 355.89C210.81 349.97 198.78 339.55 184.87 332.34C190.05 345.68 188.11 360.91 179.07 372.02C170.03 383.13 158.16 391.75 154.92 406.23C153.12 413.79 151.69 420.71 153.21 428.48Z" fill="white" stroke="#263238" stroke-miterlimit="10"/>
<path d="M352.417 91.016C349.96 103.251 342.222 114.277 330.028 119.511C317.145 124.363 305.049 127.915 296.003 138.243C289.042 146.318 283.418 155.101 281.993 165.379C296.786 170.934 309.071 181.051 323.156 187.913C317.646 174.706 319.207 159.433 327.968 148.101C336.729 136.77 348.381 127.858 351.26 113.302C352.872 105.699 354.129 98.7458 352.417 91.016Z" fill="white" stroke="#263238" stroke-miterlimit="10"/>
<path d="M170.22 394.25C172.36 391.61 174.81 388.99 177.4 386.25C179.99 383.51 182.85 380.44 185.46 377.25C192.01 369.123 195.685 359.056 195.91 348.62L197.11 349.4C203.105 353.461 209.325 357.181 215.74 360.54C213.74 365.78 210.2 371.11 204.68 377.18C197.93 384.52 188.76 387.64 178.14 391.26L173.58 392.82L173.42 392.88L173.26 392.95C172.22 393.32 171.21 393.77 170.22 394.25Z" fill="#263238"/>
<path d="M336.263 125.658C334.189 128.35 331.805 131.03 329.284 133.834C326.763 136.637 323.98 139.777 321.45 143.031C315.104 151.319 311.681 161.474 311.715 171.912L310.496 171.162C304.402 167.251 298.091 163.688 291.595 160.489C293.464 155.201 296.87 149.784 302.238 143.579C308.803 136.074 317.893 132.727 328.42 128.844L332.939 127.171L333.098 127.107L333.256 127.033C334.287 126.637 335.285 126.162 336.263 125.658Z" fill="#263238"/>
<path d="M253.62 371.65C316.233 371.65 366.99 320.892 366.99 258.28C366.99 195.667 316.233 144.91 253.62 144.91C191.007 144.91 140.25 195.667 140.25 258.28C140.25 320.892 191.007 371.65 253.62 371.65Z" fill="white" stroke="#263238" stroke-miterlimit="10"/>
<path d="M148.78 234C151.367 222.758 155.757 212.009 161.78 202.17Z" fill="white"/>
<path d="M148.78 234C151.367 222.758 155.757 212.009 161.78 202.17" stroke="#263238" stroke-miterlimit="10"/>
<path d="M175.72 332.55C165.71 322.06 157.924 309.654 152.832 296.078C147.74 282.502 145.447 268.036 146.09 253.55" fill="white"/>
<path d="M175.72 332.55C165.71 322.06 157.924 309.654 152.832 296.078C147.74 282.502 145.447 268.036 146.09 253.55" stroke="#263238" stroke-miterlimit="10"/>
<path d="M231.77 269.33C230.03 272.15 219.64 274.07 208.57 273.63C197.5 273.19 189.93 270.54 191.67 267.72C193.41 264.9 203.8 262.98 214.88 263.42C225.96 263.86 233.52 266.51 231.77 269.33Z" fill="#0095FF"/>
<path d="M322.07 256.71C320.9 259.81 311.07 263.71 300.12 265.39C289.17 267.07 281.23 265.94 282.4 262.84C283.57 259.74 293.4 255.84 304.4 254.16C315.4 252.48 323.24 253.61 322.07 256.71Z" fill="#0095FF"/>
<path d="M244.08 222.19C245.42 219.818 246.11 217.134 246.08 214.41C246.08 209.63 243.08 207.69 243.08 207.69" stroke="#263238" stroke-miterlimit="10"/>
<path d="M264.58 218.4C264.58 218.4 268.87 205.8 284.17 204.72C299.47 203.64 316.46 216.47 316.46 216.47C311.46 217.28 289.58 212.89 281.64 216.86C273.7 220.83 261.92 228.19 259.95 220.56C257.98 212.93 264.58 218.4 264.58 218.4Z" fill="#263238" stroke="#263238" stroke-miterlimit="10"/>
<path d="M230.59 223.25C230.59 223.25 221.59 213.46 207.15 218.66C192.71 223.86 182.38 242.49 182.38 242.49C187.26 241.22 205.5 228.33 214.38 228.75C223.26 229.17 237 231.12 235.71 223.34C234.42 215.56 230.59 223.25 230.59 223.25Z" fill="#263238" stroke="#263238" stroke-miterlimit="10"/>
<path d="M217.65 252.56C218.01 255.99 216.57 258.96 214.44 259.18C212.31 259.4 210.28 256.8 209.92 253.37C209.56 249.94 211 246.97 213.13 246.75C215.26 246.53 217.29 249.13 217.65 252.56Z" fill="#263238" stroke="#263238" stroke-miterlimit="10"/>
<path d="M285.68 247C286.04 250.43 284.6 253.39 282.47 253.62C280.34 253.85 278.31 251.24 277.95 247.81C277.59 244.38 279.03 241.41 281.16 241.19C283.29 240.97 285.32 243.57 285.68 247Z" fill="#263238" stroke="#263238" stroke-miterlimit="10"/>
<path d="M260.17 226.58C260.17 226.58 257.76 230.99 257.5 232.66C257.24 234.33 268 264.05 268 264.05C268 264.05 269.3 266.65 266.77 269.67C264.24 272.69 261.03 273.55 258.19 272.08C255.35 270.61 251.29 270.31 248.69 271.61C246.09 272.91 247.55 274.51 252.87 273.3" stroke="#263238" stroke-miterlimit="10"/>
<path d="M243 272.44C243 272.44 243.47 275.93 246.86 276.13C248.582 276.277 250.316 276.203 252.02 275.91" stroke="#263238" stroke-miterlimit="10"/>
<path d="M266.72 269.67C266.72 269.67 271.11 263.52 273.47 265.94C275.83 268.36 269.73 270.14 269.73 270.14" stroke="#263238" stroke-miterlimit="10"/>
<path d="M260.89 293.71C254.359 297.188 246.911 298.558 239.57 297.63C221.4 295.31 214.91 281.69 214.91 281.69" stroke="#263238" stroke-miterlimit="10"/>
<path d="M222.49 279.13C222.49 279.13 212.24 281.27 209.71 284.3" stroke="#263238" stroke-miterlimit="10"/>
</svg>
