<svg width="12" height="13" viewBox="0 0 12 13" fill="none" xmlns="http://www.w3.org/2000/svg">
<path d="M6 0.749023C6.14918 0.749023 6.29226 0.808287 6.39775 0.913776C6.50324 1.01927 6.5625 1.16234 6.5625 1.31152V2.43652C6.5625 2.58571 6.50324 2.72878 6.39775 2.83427C6.29226 2.93976 6.14918 2.99902 6 2.99902C5.85082 2.99902 5.70774 2.93976 5.60225 2.83427C5.49676 2.72878 5.4375 2.58571 5.4375 2.43652V1.31152C5.4375 1.16234 5.49676 1.01927 5.60225 0.913776C5.70774 0.808287 5.85082 0.749023 6 0.749023ZM6 10.499C6.14918 10.499 6.29226 10.5583 6.39775 10.6638C6.50324 10.7693 6.5625 10.9123 6.5625 11.0615V12.1865C6.5625 12.3357 6.50324 12.4788 6.39775 12.5843C6.29226 12.6898 6.14918 12.749 6 12.749C5.85082 12.749 5.70774 12.6898 5.60225 12.5843C5.49676 12.4788 5.4375 12.3357 5.4375 12.1865V11.0615C5.4375 10.9123 5.49676 10.7693 5.60225 10.6638C5.70774 10.5583 5.85082 10.499 6 10.499ZM6 4.49902C5.40326 4.49902 4.83097 4.73608 4.40901 5.15803C3.98705 5.57999 3.75 6.15229 3.75 6.74902C3.75 7.34576 3.98705 7.91806 4.40901 8.34001C4.83097 8.76197 5.40326 8.99902 6 8.99902C6.59674 8.99902 7.16903 8.76197 7.59099 8.34001C8.01295 7.91806 8.25 7.34576 8.25 6.74902C8.25 6.15229 8.01295 5.57999 7.59099 5.15803C7.16903 4.73608 6.59674 4.49902 6 4.49902ZM10.2427 3.30202C10.298 3.25053 10.3423 3.18843 10.3731 3.11943C10.4038 3.05043 10.4204 2.97594 10.4217 2.90042C10.423 2.82489 10.4091 2.74987 10.3808 2.67983C10.3526 2.60978 10.3104 2.54616 10.257 2.49274C10.2036 2.43933 10.14 2.39722 10.0699 2.36893C9.99991 2.34064 9.92489 2.32675 9.84936 2.32808C9.77383 2.32941 9.69935 2.34594 9.63035 2.37669C9.56135 2.40743 9.49925 2.45176 9.44775 2.50702L8.652 3.30202C8.55264 3.40865 8.49855 3.54969 8.50112 3.69542C8.50369 3.84114 8.56272 3.98018 8.66578 4.08324C8.76884 4.1863 8.90788 4.24533 9.05361 4.2479C9.19933 4.25048 9.34037 4.19638 9.447 4.09702L10.2427 3.30202ZM3.348 10.196C3.40327 10.1445 3.44759 10.0824 3.47834 10.0134C3.50908 9.94443 3.52561 9.86994 3.52694 9.79441C3.52828 9.71889 3.51438 9.64387 3.48609 9.57383C3.4578 9.50378 3.41569 9.44016 3.36228 9.38674C3.30886 9.33333 3.24524 9.29122 3.1752 9.26293C3.10516 9.23464 3.03014 9.22075 2.95461 9.22208C2.87908 9.22341 2.8046 9.23994 2.7356 9.27069C2.6666 9.30143 2.6045 9.34576 2.553 9.40102L1.758 10.196C1.65864 10.3027 1.60455 10.4437 1.60712 10.5894C1.60969 10.7351 1.66872 10.8742 1.77178 10.9772C1.87484 11.0803 2.01388 11.1393 2.15961 11.1419C2.30533 11.1445 2.44637 11.0904 2.553 10.991L3.348 10.196ZM12 6.74902C12 6.89821 11.9407 7.04128 11.8352 7.14677C11.7298 7.25226 11.5867 7.31152 11.4375 7.31152H10.3125C10.1633 7.31152 10.0202 7.25226 9.91475 7.14677C9.80926 7.04128 9.75 6.89821 9.75 6.74902C9.75 6.59984 9.80926 6.45677 9.91475 6.35128C10.0202 6.24579 10.1633 6.18652 10.3125 6.18652H11.4375C11.5867 6.18652 11.7298 6.24579 11.8352 6.35128C11.9407 6.45677 12 6.59984 12 6.74902ZM2.25 6.74902C2.25 6.89821 2.19074 7.04128 2.08525 7.14677C1.97976 7.25226 1.83668 7.31152 1.6875 7.31152H0.5625C0.413316 7.31152 0.270242 7.25226 0.164752 7.14677C0.0592632 7.04128 0 6.89821 0 6.74902C0 6.59984 0.0592632 6.45677 0.164752 6.35128C0.270242 6.24579 0.413316 6.18652 0.5625 6.18652H1.6875C1.83668 6.18652 1.97976 6.24579 2.08525 6.35128C2.19074 6.45677 2.25 6.59984 2.25 6.74902ZM9.447 10.9918C9.55363 11.0911 9.69467 11.1452 9.84039 11.1427C9.98612 11.1401 10.1252 11.081 10.2282 10.978C10.3313 10.8749 10.3903 10.7359 10.3929 10.5902C10.3955 10.4444 10.3414 10.3034 10.242 10.1968L9.447 9.40102C9.3955 9.34576 9.3334 9.30143 9.2644 9.27069C9.1954 9.23994 9.12092 9.22341 9.04539 9.22208C8.96986 9.22075 8.89484 9.23464 8.8248 9.26293C8.75476 9.29122 8.69114 9.33333 8.63772 9.38674C8.58431 9.44016 8.5422 9.50378 8.51391 9.57383C8.48562 9.64387 8.47172 9.71889 8.47306 9.79441C8.47439 9.86994 8.49092 9.94443 8.52166 10.0134C8.55241 10.0824 8.59674 10.1445 8.652 10.196L9.447 10.9918ZM2.553 4.09702C2.65963 4.19638 2.80067 4.25048 2.94639 4.2479C3.09212 4.24533 3.23116 4.1863 3.33422 4.08324C3.43728 3.98018 3.49631 3.84114 3.49888 3.69542C3.50145 3.54969 3.44736 3.40865 3.348 3.30202L2.553 2.50702C2.50114 2.45327 2.43909 2.41039 2.37047 2.38088C2.30186 2.35137 2.22806 2.33582 2.15337 2.33513C2.07868 2.33445 2.00461 2.34865 1.93546 2.3769C1.86632 2.40515 1.8035 2.44689 1.75066 2.49968C1.69782 2.55247 1.65602 2.61525 1.62771 2.68436C1.59939 2.75348 1.58512 2.82754 1.58574 2.90223C1.58635 2.97692 1.60183 3.05074 1.63128 3.11938C1.66073 3.18802 1.70355 3.25011 1.75725 3.30202L2.553 4.09702Z" fill="white"/>
</svg>
